
		<svg xmlns="http://www.w3.org/2000/svg" xmlns:xlink="http://www.w3.org/1999/xlink" version="1.1" width="3151.8987341772154" height="1367.0886075949365">
			
			<g transform="scale(7.594936708860759) translate(10, 10)">
				<defs id="SvgjsDefs13509"></defs><g id="SvgjsG13510" featureKey="root" fill="#000000" transform="matrix(1,0,0,1,0,0)"></g><g id="SvgjsG13511" featureKey="symbol1" fill="#ffffff" transform="matrix(1.7013292027733384,0,0,1.7013292027733384,12.43269372030062,-5.426157668630335)"><g xmlns="http://www.w3.org/2000/svg"><g><path d="M26.143,87.994H15.235c-2.458,0-4.458-2.001-4.458-4.459v-10.15h19.82v10.15C30.598,85.993,28.601,87.994,26.143,87.994z     M14.174,76.781v6.754c0,0.584,0.478,1.062,1.062,1.062h10.907c0.584,0,1.058-0.478,1.058-1.062v-6.754H14.174z"></path></g><g><path d="M84.765,87.994h-10.91c-2.458,0-4.455-2.001-4.455-4.459v-10.15h19.82v10.15C89.22,85.993,87.223,87.994,84.765,87.994z     M72.796,76.781v6.754c0,0.584,0.475,1.062,1.059,1.062h10.91c0.584,0,1.059-0.478,1.059-1.062v-6.754H72.796z"></path></g></g><g xmlns="http://www.w3.org/2000/svg"><path d="M93.193,76.781H6.807c-2.923,0-5.298-2.375-5.298-5.298s2.375-5.298,5.298-5.298h86.387c2.923,0,5.298,2.375,5.298,5.298   S96.116,76.781,93.193,76.781z M6.807,69.583c-1.048,0-1.901,0.853-1.901,1.9s0.853,1.901,1.901,1.901h86.387   c1.049,0,1.901-0.854,1.901-1.901s-0.853-1.9-1.901-1.9H6.807z"></path></g><g xmlns="http://www.w3.org/2000/svg"><path d="M3.9,68.458c-0.089-0.45-2.143-11.143,5.59-20.597c7.43-9.085,21.061-13.69,40.51-13.69v3.397   c-18.348,0-31.079,4.169-37.843,12.396C5.43,58.148,7.211,67.691,7.231,67.788L3.9,68.458z"></path></g><g xmlns="http://www.w3.org/2000/svg"><path d="M96.097,68.458l-3.331-0.67c0.021-0.097,1.802-9.64-4.926-17.823c-6.764-8.227-19.495-12.396-37.843-12.396v-3.397   c19.449,0,33.08,4.604,40.51,13.69C98.239,57.315,96.186,68.008,96.097,68.458z"></path></g><g xmlns="http://www.w3.org/2000/svg"><rect x="48.302" y="36.815" width="3.396" height="31.069"></rect></g><g xmlns="http://www.w3.org/2000/svg"><path d="M18.553,64.656c-3.861,0-7.003-3.141-7.003-7.002s3.142-7.003,7.003-7.003s7.002,3.142,7.002,7.003   S22.414,64.656,18.553,64.656z M18.553,54.049c-1.987,0-3.606,1.618-3.606,3.605c0,1.986,1.619,3.605,3.606,3.605   s3.606-1.619,3.606-3.605C22.159,55.667,20.54,54.049,18.553,54.049z"></path></g><g xmlns="http://www.w3.org/2000/svg"><path d="M82.535,64.656c-3.864,0-7.006-3.141-7.006-7.002s3.142-7.003,7.006-7.003c3.861,0,7.003,3.142,7.003,7.003   S86.396,64.656,82.535,64.656z M82.535,54.049c-1.99,0-3.608,1.618-3.608,3.605c0,1.986,1.618,3.605,3.608,3.605   c1.987,0,3.606-1.619,3.606-3.605C86.142,55.667,84.522,54.049,82.535,54.049z"></path></g><g xmlns="http://www.w3.org/2000/svg"><path d="M20.188,41.035c-0.073-0.468-1.725-11.561,5.49-20.003c5.118-5.988,13.302-9.026,24.318-9.026   c11.017,0,19.201,3.038,24.322,9.029c7.219,8.439,5.57,19.532,5.497,20l-3.357-0.527c0.017-0.1,1.463-10.061-4.743-17.293   c-4.448-5.185-11.757-7.812-21.718-7.812s-17.27,2.627-21.714,7.812c-6.203,7.232-4.754,17.193-4.737,17.293L20.188,41.035z"></path></g><g xmlns="http://www.w3.org/2000/svg"><path d="M25.137,38.474c-0.026-3.466,0.67-10.028,5.643-15.034c4.286-4.319,10.751-6.508,19.217-6.508   c22.839,0,24.803,16.122,24.863,21.064l-3.396,0.04c-0.077-6.615-2.97-17.708-21.466-17.708c-7.527,0-13.183,1.851-16.805,5.503   c-4.103,4.133-4.68,9.68-4.657,12.615L25.137,38.474z"></path></g><g xmlns="http://www.w3.org/2000/svg"><path d="M50,63.95H34.074l-0.129-1.56c-1.294-15.614-14.138-18.739-14.686-18.865l0.747-3.314   c0.152,0.037,14.917,3.526,17.157,20.341H50V63.95z"></path></g><g xmlns="http://www.w3.org/2000/svg"><path d="M65.926,63.95H50v-3.397h12.838c2.239-16.814,17.004-20.304,17.156-20.341l0.747,3.314   c-0.548,0.126-13.392,3.251-14.686,18.865L65.926,63.95z"></path></g></g><g id="SvgjsG13512" featureKey="text1" fill="#ffffff" transform="matrix(4.012047639587452,0,0,4.012047639587452,192.5125309225982,-18.43035308810042)"><path d="M5.1 14.780000000000001 l2.08 0 l0 1.86 c0 2.24 -1.12 3.52 -3.28 3.52 s-3.28 -1.28 -3.28 -3.52 l0 -7.28 c0 -2.24 1.12 -3.52 3.28 -3.52 s3.28 1.28 3.28 3.52 l0 1.36 l-2.08 0 l0 -1.5 c0 -1 -0.44 -1.38 -1.14 -1.38 s-1.14 0.38 -1.14 1.38 l0 7.56 c0 1 0.44 1.36 1.14 1.36 s1.14 -0.36 1.14 -1.36 l0 -2 z M8.42 6 l2.2 0 l0 10.8 c0 1 0.44 1.36 1.14 1.36 s1.14 -0.36 1.14 -1.36 l0 -10.8 l2.08 0 l0 10.66 c0 2.24 -1.12 3.52 -3.28 3.52 s-3.28 -1.28 -3.28 -3.52 l0 -10.66 z M23.32 20 l-2.24 0 c-0.12 -0.36 -0.2 -0.58 -0.2 -1.72 l0 -2.2 c0 -1.3 -0.44 -1.78 -1.44 -1.78 l-0.76 0 l0 5.7 l-2.2 0 l0 -14 l3.32 0 c2.28 0 3.26 1.06 3.26 3.22 l0 1.1 c0 1.44 -0.46 2.36 -1.44 2.82 l0 0.04 c1.1 0.46 1.46 1.5 1.46 2.96 l0 2.16 c0 0.68 0.02 1.18 0.24 1.7 z M19.74 8 l-1.06 0 l0 4.3 l0.86 0 c0.82 0 1.32 -0.36 1.32 -1.48 l0 -1.38 c0 -1 -0.34 -1.44 -1.12 -1.44 z M24.52 20 l0 -14 l2.2 0 l0 14 l-2.2 0 z M30.34 9.22 l0 7.56 c0 1 0.44 1.38 1.14 1.38 s1.14 -0.38 1.14 -1.38 l0 -7.56 c0 -1 -0.44 -1.38 -1.14 -1.38 s-1.14 0.38 -1.14 1.38 z M28.14 16.64 l0 -7.28 c0 -2.24 1.18 -3.52 3.34 -3.52 s3.34 1.28 3.34 3.52 l0 7.28 c0 2.24 -1.18 3.52 -3.34 3.52 s-3.34 -1.28 -3.34 -3.52 z M36.14 6 l2.2 0 l0 10.8 c0 1 0.44 1.36 1.14 1.36 s1.14 -0.36 1.14 -1.36 l0 -10.8 l2.08 0 l0 10.66 c0 2.24 -1.12 3.52 -3.28 3.52 s-3.28 -1.28 -3.28 -3.52 l0 -10.66 z M43.92 9.36 c0 -2.24 1.1 -3.52 3.24 -3.52 s3.24 1.28 3.24 3.52 l0 0.44 l-2.08 0 l0 -0.58 c0 -1 -0.4 -1.38 -1.1 -1.38 s-1.1 0.38 -1.1 1.38 c0 1.02 0.44 1.78 1.88 3.04 c1.84 1.62 2.42 2.78 2.42 4.38 c0 2.24 -1.12 3.52 -3.28 3.52 s-3.28 -1.28 -3.28 -3.52 l0 -0.86 l2.08 0 l0 1 c0 1 0.44 1.36 1.14 1.36 s1.14 -0.36 1.14 -1.36 c0 -1.02 -0.44 -1.78 -1.88 -3.04 c-1.84 -1.62 -2.42 -2.78 -2.42 -4.38 z"></path></g><g id="SvgjsG13513" featureKey="text2" fill="#ffffff" transform="matrix(5.8695650595256375,0,0,5.8695650595256375,190.30434788240882,37.782609642846175)"><path d="M0.8 20 l0 -14 l3.48 0 c2.2 0 3.28 1.22 3.28 3.46 l0 7.08 c0 2.24 -1.08 3.46 -3.28 3.46 l-3.48 0 z M4.24 8 l-1.24 0 l0 10 l1.24 0 c0.7 0 1.12 -0.36 1.12 -1.36 l0 -7.28 c0 -1 -0.42 -1.36 -1.12 -1.36 z M15.8 20 l-2.24 0 c-0.12 -0.36 -0.2 -0.58 -0.2 -1.72 l0 -2.2 c0 -1.3 -0.44 -1.78 -1.44 -1.78 l-0.76 0 l0 5.7 l-2.2 0 l0 -14 l3.32 0 c2.28 0 3.26 1.06 3.26 3.22 l0 1.1 c0 1.44 -0.46 2.36 -1.44 2.82 l0 0.04 c1.1 0.46 1.46 1.5 1.46 2.96 l0 2.16 c0 0.68 0.02 1.18 0.24 1.7 z M12.219999999999999 8 l-1.06 0 l0 4.3 l0.86 0 c0.82 0 1.32 -0.36 1.32 -1.48 l0 -1.38 c0 -1 -0.34 -1.44 -1.12 -1.44 z M17.000000000000004 20 l0 -14 l2.2 0 l0 14 l-2.2 0 z M22.440000000000005 6 l1.66 11.42 l0.04 0 l1.66 -11.42 l2.02 0 l-2.16 14 l-3.28 0 l-2.16 -14 l2.22 0 z M31.040000000000006 8 l0 3.9 l3.02 0 l0 2 l-3.02 0 l0 4.1 l3.8 0 l0 2 l-6 0 l0 -14 l6 0 l0 2 l-3.8 0 z"></path></g>
			</g>
		</svg>
	