<?xml version="1.0" encoding="utf-8"?>
<!-- Generator: Adobe Illustrator 19.0.0, SVG Export Plug-In . SVG Version: 6.00 Build 0)  -->
<svg version="1.1" id="Layer_1" xmlns="http://www.w3.org/2000/svg" xmlns:xlink="http://www.w3.org/1999/xlink" x="0px" y="0px"
	 viewBox="0 0 522.2 405.6" style="enable-background:new 0 0 522.2 405.6;" xml:space="preserve">
<style type="text/css">
	.st0{fill:#D8DDDC;}
	.st1{fill:#D8E8F7;}
	.st2{fill:none;stroke:#38364B;stroke-miterlimit:10;}
	.st3{fill:none;stroke:#3F4052;stroke-miterlimit:10;}
	.st4{fill:#F0F1F6;}
	.st5{fill:#FEEDE6;}
	.st6{fill:#DCDDEA;}
	.st7{fill:#EEF8FA;}
	.st8{fill:#151634;}
	.st9{fill:#2C3896;}
	.st10{fill:#EBA738;}
	.st11{fill:#AFB1D9;}
	.st12{fill:#AAAED8;}
	.st13{fill:#B6E0E2;}
	.st14{fill:#DB3726;}
</style>
<g id="XMLID_1_">
	<g id="XMLID_84_">
		<g id="XMLID_89_">
			<path id="XMLID_91_" class="st0" d="M180.8,264.2c-5.1-1-13.1-1.7-22-1.7c-8.9,0-16.8,0.7-22,1.7h-6.1v2.8c0,2.5,12.6,4.4,28,4.4
				s28-2,28-4.4v-2.8H180.8z"/>
			<ellipse id="XMLID_90_" class="st1" cx="158.8" cy="264.2" rx="28" ry="4.4"/>
		</g>
		<g id="XMLID_85_">
			<polygon id="XMLID_88_" class="st1" points="140.7,268.2 125.6,380.1 129.1,380.1 142,268.2 			"/>
			<polygon id="XMLID_87_" class="st1" points="177,268.2 192.1,380.1 188.5,380.1 175.6,268.2 			"/>
			<polygon id="XMLID_86_" class="st1" points="184.8,359.8 132.3,359 132.3,357.6 184.8,356.3 			"/>
		</g>
	</g>
	<g id="XMLID_75_">
		<g id="XMLID_81_">
			<path id="XMLID_83_" class="st0" d="M369.6,264.2c-5.1-1-13.1-1.7-22-1.7c-8.9,0-16.8,0.7-22,1.7h-6.1v2.8c0,2.5,12.6,4.4,28,4.4
				c15.5,0,28-2,28-4.4v-2.8H369.6z"/>
			<ellipse id="XMLID_82_" class="st1" cx="347.6" cy="264.2" rx="28" ry="4.4"/>
		</g>
		<g id="XMLID_77_">
			<polygon id="XMLID_80_" class="st1" points="329.5,268.2 314.3,380.1 317.9,380.1 330.8,268.2 			"/>
			<polygon id="XMLID_79_" class="st1" points="365.7,268.2 380.9,380.1 377.3,380.1 364.4,268.2 			"/>
			<polygon id="XMLID_78_" class="st1" points="373.6,359.8 321,359 321,357.6 373.6,356.3 			"/>
		</g>
	</g>
	<rect id="XMLID_74_" x="91" y="20" class="st2" width="360.8" height="186.1"/>
	<g id="XMLID_62_">
		<rect id="XMLID_73_" x="117.4" y="41.3" class="st3" width="360.8" height="186.1"/>
		<rect id="XMLID_72_" x="265.7" y="84.2" class="st4" width="178.3" height="102.3"/>
		<rect id="XMLID_71_" x="134.8" y="84.2" class="st5" width="88.6" height="3.9"/>
		<rect id="XMLID_70_" x="134.8" y="92.9" class="st5" width="88.6" height="3.9"/>
		<rect id="XMLID_69_" x="134.8" y="101.5" class="st5" width="88.6" height="3.9"/>
		<g id="XMLID_63_">
			<rect id="XMLID_68_" x="165.7" y="52.9" class="st6" width="260" height="11.9"/>
			<rect id="XMLID_67_" x="432.8" y="52.9" class="st7" width="35.6" height="11.9"/>
			<circle id="XMLID_66_" class="st6" cx="155.8" cy="58.8" r="4.2"/>
			<circle id="XMLID_65_" class="st6" cx="143.9" cy="58.8" r="4.2"/>
			<circle id="XMLID_64_" class="st6" cx="132" cy="58.8" r="4.2"/>
		</g>
	</g>
	<g id="XMLID_42_">
		<path id="XMLID_61_" class="st8" d="M45.5,143.4l-5-11.5l3.3-4.8l-0.4,2.7c0,0,8-8.2,25.5-14.7c0,0-2.9,4.8-4.1,5.8
			c0,0,5.3-3.6,11.4-6.3c0,0,4,13.9,0.1,23.7C76.4,138.3,60,151.5,45.5,143.4z"/>
		<polygon id="XMLID_60_" class="st8" points="44,249.7 31.1,380.1 39,380.1 69.6,259.2 88.6,380.1 96.5,380.1 95.2,243.9 		"/>
		<polygon id="XMLID_59_" class="st9" points="44,249.7 42.2,204.4 29.2,214.1 29.8,248.1 24.8,250 12.5,209.1 42.4,177 
			154.9,146.7 156.7,153.3 98.8,184.1 95.2,243.9 		"/>
		<path id="XMLID_58_" class="st10" d="M77,139.7c-0.4-2.4-2.5-1.3-3.2-1l-0.5-6.8L46,136.6l2,6.7c-0.7-0.2-3.3-0.6-2.9,1.9
			c0.5,3.1,4.1,5,5,5.4l5.6,14.9l17.1-3.4l1.5-15.7C75.1,145.6,77.5,142.7,77,139.7z"/>
		<polyline id="XMLID_49_" class="st10" points="60.2,172.2 59.1,164.8 68.7,162.9 69.6,169.7 		"/>
		<path id="XMLID_48_" class="st10" d="M58.9,172.6l12.5-3.4c0,0,2.9,7.5-4.9,8.9C59.3,179.4,58.9,172.6,58.9,172.6z"/>
		<path id="XMLID_47_" class="st10" d="M154.9,146.7l15.3-4.7c1.3,2.2-9.9,7.2-9.9,7.2s5.3,5.9-3.6,4.1L154.9,146.7z"/>
		<path id="XMLID_46_" class="st10" d="M29.8,248.1c7.5,1.3,1.5,3.8,1.5,3.8s1.3,8.2-0.6,8.9c-2.6,0.9-5.9-10.8-5.9-10.8L29.8,248.1
			z"/>
		<polygon id="XMLID_45_" class="st11" points="39,380.1 39,386.9 35.3,386.9 35.3,385.3 33,386.9 15.8,386.9 15.8,386.9 
			31.1,380.1 		"/>
		<polygon id="XMLID_44_" class="st11" points="88.6,380.1 88.6,386.9 92.3,386.9 92.3,385.3 94.6,386.9 111.8,386.9 111.8,386.9 
			96.5,380.1 		"/>
	</g>
	<g id="XMLID_30_">
		<path id="XMLID_41_" class="st8" d="M451.8,165.4l8.4-30l-12.3-6l1.5,2.7c0,0-12.6-6.1-24.4-7.7c0,0-6.9,8.8,2.3,16l11.4,16.2
			L451.8,165.4z"/>
		<path id="XMLID_40_" class="st10" d="M475.8,91.9c-5.6-5.1,0.7-4,0.7-4s3.3-7.7,5.2-7.3c2.7,0.6-0.7,12.4-0.7,12.4L475.8,91.9z"/>
		<path id="XMLID_39_" class="st10" d="M361.9,226c-4.1-6.4-4.1,0-4.1,0s-8.1,2-8,3.9c0.1,2.7,12.2,1.4,12.2,1.4L361.9,226z"/>
		<polygon id="XMLID_38_" class="st9" points="447.6,257.3 497.7,242.1 502.6,254.3 505.9,383.7 498.2,382.2 473.8,266.7 
			452.3,303.4 444.1,383.7 436.4,382.2 429.6,301.4 		"/>
		<polygon id="XMLID_37_" class="st10" points="497.7,242.1 480.8,182.4 481,92.9 475.8,91.9 459.3,170.1 420.2,183.5 400.5,215.5 
			361.9,226 362.1,231.3 407.7,230.3 427.6,209.7 447.6,257.3 		"/>
		<path id="XMLID_36_" class="st10" d="M451.1,170.9h-20.5l-1.8-11H425l2.3-19.5l17.6,5.2l-0.3,7.6h2.3c0,0,1.5-5.6,4.1-3.8
			c1.7,1.2,1.5,6.1-0.6,7.8l1.3,8.2L451.1,170.9z"/>
		
			<rect id="XMLID_35_" x="437" y="164.9" transform="matrix(0.9755 -0.2198 0.2198 0.9755 -27.051 101.4635)" class="st10" width="10.9" height="14.9"/>
		<path id="XMLID_34_" class="st11" d="M444.1,383.7v4.4h-24c6.6-6,16.3-5.9,16.3-5.9L444.1,383.7z"/>
		<path id="XMLID_33_" class="st11" d="M505.9,383.7v4.4h-24c6.6-6,16.3-5.9,16.3-5.9L505.9,383.7z"/>
		<polygon id="XMLID_32_" class="st8" points="408.8,201.9 422.5,214.9 427.6,209.7 447.6,257.3 497.7,242.1 480.8,182.4 
			480.8,159.2 462.6,154.4 459.3,170.1 420.2,183.5 		"/>
	</g>
	<g id="XMLID_15_">
		<path id="XMLID_29_" class="st12" d="M348.7,126.9c-4-6.5,1.8-3.6,1.8-3.6s5.3-6.4,7.1-5.4c2.4,1.3-4.2,11.6-4.2,11.6L348.7,126.9
			z"/>
		<g id="XMLID_16_">
			<polygon id="XMLID_28_" class="st13" points="290.2,121.4 292.9,117.8 297.7,122.7 294,125.4 			"/>
			<path id="XMLID_27_" class="st9" d="M270.1,126.7c0,0,9.6-15.2,22.8-5.5c13.5,10-0.8,25.9-0.8,25.9l-13.9-3.8L270.1,126.7z"/>
			<path id="XMLID_26_" class="st9" d="M292.9,117.8c0,0,1.2-7.6,9.7-8.2c8.5-0.6,13.2,9.5,10.4,15.9c-2.8,6.4-9.5,13.4-4.5,19.6
				c0,0-5.9-1.8-5.9-8.5c0-7.7,0.9-14.9-4.9-13.8L292.9,117.8z"/>
			<path id="XMLID_25_" class="st12" d="M212.3,135c3.6-6.7-2-3.5-2-3.5s-5.7-6-7.4-5c-2.3,1.5,4.9,11.3,4.9,11.3L212.3,135z"/>
			<polygon id="XMLID_24_" class="st8" points="207.8,137.8 212.3,135 234.1,159.8 260.6,165.3 305.6,164.9 330.2,156 348.7,126.9 
				353.4,129.5 338.6,163.2 307.7,183.8 302.3,231.6 264.4,231.6 257.4,181 226.2,168 			"/>
			<path id="XMLID_23_" class="st14" d="M302.3,231.6c0,0,10.2,6.3,11,21c1.3,23.2-16.9,124.2-16.9,124.2h-7.6l-2.9-119.3l-59,119.3
				h-7.6l45.1-145.2"/>
			<polygon id="XMLID_22_" class="st12" points="269.2,165.2 280.5,182.7 291.7,165.2 			"/>
			<path id="XMLID_21_" class="st12" d="M289.2,155.8H273l-3-8.3l-2.9-1.7l1.9-3.5l1.1-15.6l14.1,3.9l0.6,7.5l1.8,0.3
				c0,0,2.5-4.3,4.2-2.9c1.8,1.5,0.4,4-1.7,5.7l2.9,5.8L289.2,155.8z"/>
			<rect id="XMLID_20_" x="277" y="155" class="st12" width="9" height="15.9"/>
			<path id="XMLID_19_" class="st11" d="M226.9,376.8v11.3h-1.7l-1.2-4.7l-3,4.7h-16.6c0,0,10-1.6,14.8-11.3H226.9z"/>
			<path id="XMLID_18_" class="st11" d="M296.5,376.8v11.3h-1.7l-1.2-4.7l-3,4.7h-16.6c0,0,10-1.6,14.8-11.3H296.5z"/>
		</g>
	</g>
</g>
</svg>
