<?xml version="1.0" encoding="utf-8"?>
<!-- Generator: Adobe Illustrator 19.0.0, SVG Export Plug-In . SVG Version: 6.00 Build 0)  -->
<svg version="1.1" id="Layer_1" xmlns="http://www.w3.org/2000/svg" xmlns:xlink="http://www.w3.org/1999/xlink" x="0px" y="0px"
	 viewBox="0 0 445 337" style="enable-background:new 0 0 445 337;" xml:space="preserve">
<style type="text/css">
	.st0{opacity:0.5;fill:#687BBC;}
	.st1{fill:#58448F;}
	.st2{fill:#382461;}
	.st3{fill:#FEF2F7;}
	.st4{opacity:0.8;fill:#687BBC;}
	.st5{fill:#FCCF4F;}
	.st6{fill:#B89255;}
	.st7{fill:#F384AA;}
	.st8{fill:#EE6C98;}
	.st9{fill:#FDE4E9;}
	.st10{fill:#FEF9FB;}
	.st11{fill:#90CBEF;}
	.st12{fill:#5BA2D9;}
	.st13{fill:#FDE4E2;}
	.st14{fill:#687BBC;}
	.st15{enable-background:new    ;}
	.st16{fill:#342646;}
	.st17{fill:#FDE2D7;}
	.st18{fill:#44406D;}
	.st19{fill:#DAAC34;}
	.st20{fill:#806CB1;}
	.st21{fill:#F0668F;}
	.st22{fill:#D1B9DA;}
	.st23{fill:#762A3A;}
	.st24{fill:#BCBACE;}
	.st25{fill:#1C695B;}
	.st26{fill:#419682;}
	.st27{fill:#4EAF9D;}
	.st28{fill:#A14B59;}
	.st29{fill:#8A8CC4;}
	.st30{opacity:0.2;fill:#FEF9FB;}
</style>
<g>
	<path class="st0" d="M385.2,232.1c0.1-0.2,0-0.4,0-0.6v0l0,0c-0.2-0.7-1.1-1.3-1.1-1.3s-54.2-31.3-56.7-32.8c-2.6-1.5-5.2,0-5.2,0
		S299,211,296.5,212.5c-1,0.6-1.2,1.1-1.1,1.6v2.6c-0.1,1,1.1,1.7,1.1,1.7s54.2,31.3,56.7,32.8c0.8,0.5,1.6,0.6,2.4,0.7l0,0l0,0
		c1.6,0,2.8-0.7,2.8-0.7l23.2-13.4c0,0,0,0,2.6-1.5c0.7-0.4,1-0.8,1.1-1.2h0v0c0.1-0.2,0-0.4,0-0.6V232.1z"/>
	<g>
		<g>
			<path class="st1" d="M390.8,235.1c0.1-0.2,0-0.4,0-0.6v-2.9l-6.1-1.2c-13.5-7.8-49.6-28.7-51.7-29.9c-2.6-1.5-5.2,0-5.2,0
				s-17.8,10.3-23.9,13.8l-3-0.6v2.9c-0.1,1,1.1,1.7,1.1,1.7s54.2,31.3,56.7,32.8c0.8,0.5,1.6,0.6,2.4,0.7l0,0l0,0
				c1.6,0,2.8-0.7,2.8-0.7l23.2-13.4c0,0,0,0,2.6-1.5C390.4,235.9,390.7,235.5,390.8,235.1L390.8,235.1L390.8,235.1z"/>
			<path class="st2" d="M387.1,234.8l-23.2,13.4c0,0-2.6,1.5-5.2,0c-2.6-1.5-56.7-32.8-56.7-32.8s-2.6-1.5,0-3
				c2.6-1.5,25.8-14.9,25.8-14.9s2.6-1.5,5.2,0c2.6,1.5,56.7,32.8,56.7,32.8s2.6,1.5,0,3C387.1,234.8,387.1,234.8,387.1,234.8z"/>
			<polygon class="st3" points="379.4,227.4 333,200.5 307.2,215.4 353.6,242.2 			"/>
			<path class="st3" d="M379,232.3l-0.4-0.3c-0.6-0.4-1.4-0.4-2.1,0l-13.2,7.6c-0.5,0.3-0.5,1.1,0,1.4l0.2,0.1
				c0.7,0.4,1.7,0.4,2.4,0l13.2-7.6C379.5,233.2,379.5,232.5,379,232.3z"/>
			<ellipse class="st3" cx="317.5" cy="206.3" rx="1.3" ry="0.5"/>
		</g>
	</g>
</g>
<polygon class="st0" points="422.2,156.3 348.4,113.7 283.4,145.1 370.5,195 422.2,165.1 422.2,164 421.2,163.4 422.2,162.9 
	422.2,159.4 420.4,158.4 422.2,157.4 "/>
<g>
	<path class="st4" d="M273.6,263.8c-0.6,0.6-27.4,17.4-27.4,17.4s-34.5-20.1-33.3-19.7C214.2,261.8,273.6,263.8,273.6,263.8z"/>
	<polygon class="st5" points="273.6,263.8 241.3,245.1 213,261.5 241.4,277.9 249.4,277.8 	"/>
	<polygon class="st6" points="245.3,273.2 249.4,277.8 241.4,277.9 	"/>
</g>
<g>
	<g>
		<polygon class="st7" points="432.1,158.5 358.4,115.9 306.8,145.7 380.5,188.3 		"/>
		<polygon class="st7" points="306.8,144.6 306.8,145.7 380.5,188.3 432.1,158.5 432.1,157.3 		"/>
		<g>
			<polygon class="st8" points="432.1,157.3 358.4,114.8 306.8,144.6 380.5,187.1 			"/>
		</g>
	</g>
	<g>
		<polygon class="st7" points="432.1,156.2 358.4,113.7 306.8,143.5 380.5,186 		"/>
		<polygon class="st9" points="306.8,140 306.8,143.5 380.5,186 432.1,156.2 432.1,152.8 		"/>
		<g>
			<polygon class="st10" points="432.1,152.8 358.4,110.2 306.8,140 380.5,182.6 			"/>
		</g>
	</g>
	<g>
		<polygon class="st7" points="432.1,150.8 358.4,108.2 306.8,138 380.5,180.6 		"/>
		<polygon class="st8" points="306.8,136.9 306.8,138 380.5,180.6 432.1,150.8 432.1,149.6 		"/>
		<g>
			<polygon class="st7" points="432.1,149.6 358.4,107 306.8,136.9 380.5,179.4 			"/>
		</g>
	</g>
	<polygon class="st8" points="380.5,179.4 380.5,188.3 306.8,145.7 306.8,136.9 	"/>
</g>
<g>
	<g>
		<polygon class="st11" points="437.4,144 363.6,101.5 312,131.3 385.8,173.9 		"/>
		<polygon class="st11" points="312,130.1 312,131.3 385.8,173.9 437.4,144 437.4,142.9 		"/>
		<g>
			<polygon class="st12" points="437.4,142.9 363.6,100.3 312,130.1 385.8,172.7 			"/>
		</g>
	</g>
	<g>
		<polygon class="st11" points="437.4,141.8 363.6,99.2 312,129 385.8,171.6 		"/>
		<polygon class="st13" points="312,125.6 312,129 385.8,171.6 437.4,141.8 437.4,138.3 		"/>
		<g>
			<polygon class="st10" points="437.4,138.3 363.6,95.8 312,125.6 385.8,168.1 			"/>
		</g>
	</g>
	<g>
		<polygon class="st11" points="437.4,136.3 363.6,93.7 312,123.6 385.8,166.1 		"/>
		<polygon class="st12" points="312,122.4 312,123.6 385.8,166.1 437.4,136.3 437.4,135.2 		"/>
		<g>
			<polygon class="st11" points="437.4,135.2 363.6,92.6 312,122.4 385.8,165 			"/>
			<polygon class="st3" points="334.2,122.4 363.6,105.4 415.2,135.2 385.8,152.1 			"/>
		</g>
	</g>
	<polygon class="st12" points="385.8,165 385.8,173.9 312,131.3 312,122.4 	"/>
</g>
<g>
	<path class="st14" d="M114.4,229.9c0-0.1,0.1-0.1,0.1-0.2c0.1,0,0.3,0.1,0.4,0.1c0.1,0.1,0.3,0.1,0.5,0.2c0.3,0.1,0.7,0.2,1,0.3
		c0.3,0.1,0.7,0.2,1,0.3c0.1,0.1,0.3,0.1,0.5,0.2c0.2,0.1,0.3,0.1,0.5,0.2v0l0,0c0.1,0.1,4.4,1.4,4.9,1.7l0,0l0,0c0,0,0,0,0,0l0,0
		l54.1,31.4l0.8,1.1l-0.8,2l-1.5,0.9l-54.1-31.4l0,0c-1.5-1.3-3.1-3-4.5-4.3C116.3,231.5,115.3,230.7,114.4,229.9z"/>
	<g>
		<g>
			<g class="st15">
				<path class="st16" d="M115.5,228.7c0.1,0,0.3,0.1,0.4,0.1c0.1,0.1,0.3,0.1,0.5,0.2c0.3,0.1,0.7,0.2,1,0.3c0.3,0.1,0.7,0.2,1,0.3
					c0.1,0.1,0.3,0.1,0.5,0.2c0.2,0.1,0.3,0.1,0.5,0.2l-1.1,1.3c-0.9-0.8-1.8-1.6-2.8-2.4C115.4,228.9,115.4,228.8,115.5,228.7z"/>
				<path class="st17" d="M119.2,230.1c0.2,0.1,4.8,1.6,5,1.7c-0.1,0.2-0.2,0.2-0.5,0.4c-0.7,0.4-1.5,1.4-1.5,2.2
					c0,0.4,0.2,1.1,0.4,1.3c-1.5-1.3-3.1-3-4.6-4.3C118,230.9,118.9,230,119.2,230.1z"/>
				<g>
					<path class="st18" d="M122.3,234.4c0,0.9,0.6,1.2,1.3,0.8c0.7-0.4,1.4-1.5,1.4-2.3c0-0.9-0.6-1.2-1.3-0.8
						C122.9,232.5,122.3,233.5,122.3,234.4z"/>
				</g>
			</g>
		</g>
		<g>
			<g class="st15">
				<g>
					<polygon class="st19" points="176,266 121.9,234.6 122.7,235.6 176.8,267 					"/>
				</g>
				<g>
					<polygon class="st19" points="176.8,264 122.6,232.6 121.9,234.6 176,266 					"/>
				</g>
				<g>
					<polygon class="st5" points="178.3,263.1 124.2,231.7 122.6,232.6 176.8,264 					"/>
				</g>
				<g>
					<polygon class="st18" points="176.8,264 176,266 176.8,267 178.3,266.2 179.1,264.2 178.3,263.1 					"/>
				</g>
			</g>
		</g>
	</g>
</g>
<g>
	<polygon class="st4" points="99.9,311.8 4.6,259.2 66.7,246.7 167,273 	"/>
	<g>
		<g>
			<path class="st20" d="M96.3,246.6c0.8-0.5,2-0.4,2.8,0c0.8,0.4,0.8,1.1,0,1.6c-0.8,0.5-2,0.4-2.8,0
				C95.6,247.7,95.5,247.1,96.3,246.6z M98.3,247.1c-0.4-0.2-0.9-0.3-1.3-0.1c-0.3,0.2-0.3,0.5,0.1,0.8c0.4,0.3,1,0.3,1.3,0.1
				C98.7,247.6,98.7,247.3,98.3,247.1"/>
		</g>
		<g class="st15">
			<g>
				<path class="st10" d="M97.1,247.7c0.4,0.3,1,0.3,1.3,0.1c0.3-0.2,0.3-0.5-0.1-0.7c-0.4-0.2-0.9-0.3-1.3-0.1
					C96.6,247.2,96.7,247.5,97.1,247.7z"/>
			</g>
			<g>
				<polygon class="st20" points="93.2,248.4 92.3,248.9 101.6,249.9 102.4,249.4 				"/>
			</g>
			<g>
				<path class="st10" d="M97.7,250.6c-0.4-0.3-1-0.3-1.3-0.1c-0.3,0.2-0.3,0.5,0.1,0.7c0.4,0.2,0.9,0.3,1.3,0.1
					C98.2,251.2,98.2,250.8,97.7,250.6z"/>
			</g>
			<g>
				<path class="st20" d="M90.6,252.8l-1.6,0.9c2.2,1.3,5.1,2,8.2,2c3.1,0,6-0.7,8.3-2c2.2-1.3,3.4-3,3.4-4.8c0-1.8-1.2-3.5-3.4-4.8
					c-2.2-1.3-5.1-2-8.2-2c-3.1,0-6,0.7-8.3,2l1.6,0.9c1.8-1,4.2-1.6,6.7-1.6c2.5,0,4.9,0.6,6.7,1.6c1.8,1,2.7,2.4,2.7,3.9
					c0,1.5-1,2.8-2.8,3.9c-1.8,1-4.2,1.6-6.7,1.6C94.7,254.4,92.4,253.9,90.6,252.8z"/>
			</g>
			<g>
				<polygon class="st20" points="14.3,256.6 18.4,258.9 75.8,225.8 71.8,223.4 				"/>
			</g>
			<g>
				<path class="st10" d="M77.8,258.9c0.4,0.3,1,0.3,1.3,0.1c0.3-0.2,0.3-0.5-0.1-0.7c-0.4-0.2-0.9-0.3-1.3-0.1
					C77.3,258.3,77.3,258.7,77.8,258.9z"/>
			</g>
			<g>
				<path class="st10" d="M71.2,264c-1.8-1.1-2.8-2.5-2.7-4c0.1-1.4,1.1-2.7,2.8-3.7c1.8-1,4.2-1.6,6.7-1.6c2.5,0,4.9,0.6,6.7,1.6
					c1.8,1,2.7,2.4,2.7,3.9c0,1.5-1,2.8-2.8,3.9c-1.8,1-4.2,1.6-6.7,1.6C75.3,265.6,72.9,265.1,71.2,264z"/>
			</g>
			<g>
				<path class="st10" d="M78.4,261.8c-0.4-0.3-1-0.3-1.3-0.1c-0.3,0.2-0.3,0.5,0.1,0.7c0.4,0.2,0.9,0.3,1.3,0.1
					C78.8,262.3,78.8,262,78.4,261.8z"/>
			</g>
			<g>
				<polygon class="st20" points="25.9,263.3 27.8,264.4 85.2,231.2 83.3,230.1 				"/>
			</g>
			<g>
				<polygon class="st20" points="30,265.7 31.9,266.8 89.3,233.6 87.4,232.5 				"/>
			</g>
			<g>
				<path class="st20" d="M69.7,255.4l1.6,0.9c-1.7,1-2.7,2.3-2.8,3.7c-0.1,1.5,0.9,2.9,2.7,4c-1.8-1.1-2.8-2.5-2.7-4
					c0.1-1.4,1.1-2.7,2.8-3.7c1.8-1,4.2-1.6,6.7-1.6c2.5,0,4.9,0.6,6.7,1.6c1.8,1,2.7,2.4,2.7,3.9c0,1.5-1,2.8-2.8,3.9l1.6,0.9
					c-2.2,1.3-5.1,2-8.3,2c-3.1,0-6-0.7-8.2-2c2.2,1.3,5.1,2,8.2,2c3.1,0,6-0.7,8.3-2c2.2-1.3,3.4-3,3.4-4.8c0-1.8-1.2-3.5-3.4-4.8
					c-2.2-1.3-5.1-2-8.2-2S71.9,254.1,69.7,255.4z"/>
			</g>
			<g>
				<path class="st11" d="M69.7,255.4c-2.1,1.2-3.4,2.9-3.4,4.6c-0.1,1.9,1.1,3.6,3.4,5c2.2,1.3,5.1,2,8.2,2c3.1,0,6-0.7,8.3-2
					l-1.6-0.9c-1.8,1-4.2,1.6-6.7,1.6c-2.5,0-4.9-0.6-6.7-1.6c-1.8-1.1-2.8-2.5-2.7-4c0.1-1.4,1.1-2.7,2.8-3.7L69.7,255.4z"/>
			</g>
			<g>
				<polygon class="st20" points="34,268 35.9,269.1 93.4,236 91.5,234.9 				"/>
			</g>
			<g>
				<path class="st10" d="M58.4,270.1c0.4,0.3,1,0.3,1.3,0.1c0.3-0.2,0.3-0.5-0.1-0.7c-0.4-0.2-0.9-0.3-1.3-0.1
					C58,269.5,58,269.8,58.4,270.1z"/>
			</g>
			<g>
				<path class="st10" d="M51.8,275.3c-1.8-1.1-2.8-2.5-2.7-4c0.1-1.4,1.1-2.7,2.8-3.7c1.8-1,4.2-1.6,6.7-1.6c2.5,0,4.9,0.6,6.7,1.6
					c1.8,1,2.7,2.4,2.7,3.9c0,1.5-1,2.8-2.8,3.9c-1.8,1-4.2,1.6-6.7,1.6C55.9,276.9,53.5,276.3,51.8,275.3z"/>
			</g>
			<g>
				<path class="st10" d="M59,272.9c-0.4-0.3-1-0.3-1.3-0.1c-0.3,0.2-0.3,0.5,0.1,0.8c0.4,0.2,0.9,0.3,1.3,0.1
					C59.5,273.5,59.5,273.2,59,272.9z"/>
			</g>
			<g>
				<polygon class="st11" points="130.2,263.4 149.1,274.4 154.4,271.4 135.5,260.4 				"/>
			</g>
			<g>
				<path class="st20" d="M50.2,266.6l1.6,0.9c-1.7,1-2.7,2.3-2.8,3.7c-0.1,1.5,0.9,2.9,2.7,4c-1.8-1.1-2.8-2.5-2.7-4
					c0.1-1.4,1.1-2.7,2.8-3.7c1.8-1,4.2-1.6,6.7-1.6c2.5,0,4.9,0.6,6.7,1.6l1.6-0.9c-2.2-1.3-5.1-2-8.2-2
					C55.4,264.6,52.4,265.3,50.2,266.6z"/>
			</g>
			<g>
				<polygon class="st21" points="133.5,272.3 143.1,277.9 148.4,274.8 138.9,269.3 				"/>
			</g>
			<g>
				<polygon class="st11" points="123.8,280.6 131.1,284.8 136.4,281.8 129.2,277.5 				"/>
			</g>
			<g>
				<polygon class="st20" points="68.6,288.1 70.5,289.2 127.9,256 126.1,254.9 				"/>
			</g>
			<g>
				<polygon class="st20" points="74,291.2 75.9,292.3 133.3,259.2 131.4,258.1 				"/>
			</g>
			<g>
				<polygon class="st20" points="84.7,294 86.6,295.1 113.6,279.5 111.7,278.4 				"/>
			</g>
			<g>
				<polygon class="st20" points="89.2,296.6 91.1,297.7 118.1,282.1 116.2,281 				"/>
			</g>
			<g>
				<polygon class="st20" points="93.7,299.2 95.6,300.3 122.6,284.7 120.7,283.6 				"/>
			</g>
			<g>
				<polygon class="st20" points="97.6,301.5 99.5,302.6 126.5,287 124.6,285.9 				"/>
			</g>
			<g>
				<path class="st10" d="M167,273l-67.1,38.8L5.5,256.9l67.1-38.8L167,273z M86.1,255.4c-2.2-1.3-5.1-2-8.2-2c-3.1,0-6,0.7-8.3,2
					c-2.1,1.2-3.4,2.9-3.4,4.6c-0.1,1.9,1.1,3.6,3.4,5c2.2,1.3,5.1,2,8.2,2c3.1,0,6-0.7,8.3-2c2.2-1.3,3.4-3,3.4-4.8
					C89.5,258.4,88.3,256.7,86.1,255.4 M66.7,266.6c-2.2-1.3-5.1-2-8.2-2c-3.1,0-6,0.7-8.3,2c-2.1,1.2-3.4,2.9-3.4,4.6
					c-0.1,1.9,1.1,3.6,3.4,5c2.2,1.3,5.1,2,8.2,2c3.1,0,6-0.7,8.3-2c2.2-1.3,3.4-3,3.4-4.8C70.1,269.6,68.9,267.9,66.7,266.6
					 M105.6,244.2c-2.2-1.3-5.1-2-8.2-2c-3.1,0-6,0.7-8.3,2c-2.1,1.2-3.4,2.9-3.4,4.6c-0.1,1.9,1.1,3.6,3.4,4.9c2.2,1.3,5.1,2,8.2,2
					c3.1,0,6-0.7,8.3-2c2.2-1.3,3.4-3,3.4-4.8C109,247.2,107.8,245.5,105.6,244.2 M18.4,258.9l57.5-33.2l-4.1-2.4l-57.5,33.2
					L18.4,258.9 M31.9,266.8l57.5-33.2l-1.9-1.1L30,265.7L31.9,266.8 M23.7,262l57.5-33.2l-1.9-1.1l-57.5,33.2L23.7,262 M27.8,264.4
					l57.5-33.2l-1.9-1.1l-57.5,33.2L27.8,264.4 M35.9,269.1L93.4,236l-1.9-1.1L34,268L35.9,269.1 M75.9,292.3l57.5-33.2l-1.9-1.1
					L74,291.2L75.9,292.3 M70.5,289.2l57.5-33.2l-1.9-1.1l-57.5,33.2L70.5,289.2 M64.7,285.8l57.5-33.2l-1.9-1.1l-57.5,33.2
					L64.7,285.8 M149.1,274.4l5.3-3.1l-18.9-11l-5.3,3.1L149.1,274.4 M137.1,281.4l5.3-3.1l-14.3-8.3l-5.3,3.1L137.1,281.4
					 M143.1,277.9l5.3-3.1l-9.6-5.6l-5.3,3.1L143.1,277.9 M91.1,297.7l27-15.6l-1.9-1.1l-27,15.6L91.1,297.7 M86.6,295.1l27-15.6
					l-1.9-1.1l-27,15.6L86.6,295.1 M95.6,300.3l27-15.6l-1.9-1.1l-27,15.6L95.6,300.3 M99.5,302.6l27-15.6l-1.9-1.1l-27,15.6
					L99.5,302.6 M131.1,284.8l5.3-3.1l-7.2-4.2l-5.3,3.1L131.1,284.8"/>
			</g>
			<g>
				<path class="st21" d="M89.1,244.2c-2.1,1.2-3.4,2.9-3.4,4.6c-0.1,1.9,1.1,3.6,3.4,4.9l1.6-0.9c-1.8-1.1-2.8-2.5-2.7-4
					c0.1-1.4,1.1-2.7,2.8-3.7L89.1,244.2z"/>
			</g>
			<g>
				<path class="st10" d="M106.7,249c0-1.5-1-2.8-2.7-3.9c-1.8-1-4.1-1.6-6.7-1.6c-2.5,0-4.9,0.6-6.7,1.6c-1.7,1-2.7,2.3-2.8,3.7
					c-0.1,1.5,0.9,2.9,2.7,4c1.8,1,4.1,1.6,6.7,1.6c2.5,0,4.9-0.6,6.7-1.6C105.7,251.8,106.7,250.4,106.7,249z"/>
			</g>
			<g>
				<polygon class="st20" points="21.8,260.9 23.7,262 81.2,228.9 79.3,227.8 				"/>
			</g>
			<g>
				<path class="st11" d="M50.2,266.6c-2.1,1.2-3.4,2.9-3.4,4.6c-0.1,1.9,1.1,3.6,3.4,5c2.2,1.3,5.1,2,8.2,2c3.1,0,6-0.7,8.3-2
					c2.2-1.3,3.4-3,3.4-4.8c0-1.8-1.2-3.5-3.4-4.8l-1.6,0.9c1.8,1,2.7,2.4,2.7,3.9c0,1.5-1,2.8-2.8,3.9c-1.8,1-4.2,1.6-6.7,1.6
					c-2.5,0-4.9-0.6-6.7-1.6c-1.8-1.1-2.8-2.5-2.7-4c0.1-1.4,1.1-2.7,2.8-3.7L50.2,266.6z"/>
			</g>
			<g>
				<polygon class="st11" points="122.8,273.1 137.1,281.4 142.4,278.3 128.2,270 				"/>
			</g>
			<g>
				<polygon class="st20" points="62.8,284.7 64.7,285.8 122.1,252.7 120.3,251.6 				"/>
			</g>
		</g>
	</g>
</g>
<path class="st0" d="M190.5,242.6L65.2,187.9l126-69.4c0,0,130.3,55.9,120.7,58.5C302.3,179.6,190.5,242.6,190.5,242.6z"/>
<ellipse class="st0" cx="262.8" cy="125.4" rx="26.9" ry="11"/>
<g>
	<ellipse class="st0" cx="55.4" cy="189.4" rx="30.4" ry="12.5"/>
	<g>
		<g>
			<g>
				<path class="st10" d="M71.6,148.8l-24.8,8.3v31.2c0,6.3,8.4,11.4,18.7,11.4c10.4,0,18.7-5.1,18.7-11.4v-31.2L71.6,148.8z"/>
				<ellipse class="st22" cx="65.6" cy="157.1" rx="18.7" ry="11.4"/>
				<path class="st23" d="M49.7,163.1c3.3,3.3,9.2,5.4,16,5.4c6.7,0,12.7-2.2,16-5.4c0.2-0.7,0.3-1.3,0.3-2.1
					c0-5.5-7.3-9.9-16.3-9.9c-9,0-16.3,4.4-16.3,9.9C49.3,161.7,49.4,162.4,49.7,163.1z"/>
			</g>
			<path class="st24" d="M65.6,147c9.4,0,17.4,4.6,17.4,10.1c0,5.5-8,10.1-17.4,10.1c-9.4,0-17.4-4.6-17.4-10.1
				C48.2,151.6,56.2,147,65.6,147 M65.6,145.7c-10.4,0-18.7,5.1-18.7,11.4s8.4,11.4,18.7,11.4s18.7-5.1,18.7-11.4
				S76,145.7,65.6,145.7L65.6,145.7z"/>
		</g>
		<path class="st25" d="M81.6,104.5c-1.6,3.3-1.6,7.2-1.6,10.8c0,4.1,0,8.3,0,12.4c0,4.7,0,9.5-1.3,14c-1.3,4.5-4,8.9-8.3,11
			c-2.1,1-4.7,1.4-6.7,0.2c-0.9-0.6-1.5-1.4-2.1-2.2c-4.8-7.5-0.4-17.5,3.1-24.6C68.7,117.8,74.5,110.3,81.6,104.5z"/>
		<path class="st26" d="M46,138.5c-1.2-15.5-0.4-31.2-4.2-46.3c10.3,12.6,15.4,29.4,13.7,45.5c3.4-10.7,6.9-21.6,6.8-32.8
			c0-5.4,3.3-18,3.3-18s1.9,12.1,3.7,18c1.2,4,1.5,8.3,1.7,12.5c0.3,6.1,0.7,12.2,1,18.4c5.1-15.4,18.7-36.6,18.7-36.6
			s-5,40.4-7.7,49.7c-3,10.5-12.8,17.6-24.1,15.1C48.8,161.7,46.6,147,46,138.5z"/>
		<path class="st27" d="M54,153.8c-2.1-5.9-0.2-12.3,1.2-18.5c1.6-7.3,2.2-14.9,0.6-22.2c5.4,11.4,10.1,23,14.2,34.9
			c1.1,3.1,2.1,6.4,1.1,9.5c-0.9,2.9-6.2,8.1-9.7,7.2C58.5,164.1,54.9,156.4,54,153.8z"/>
	</g>
</g>
<g>
	<g>
		<path class="st10" d="M277.3,81.9l-24.8,8.3v31.2c0,6.3,8.4,11.4,18.8,11.4c10.4,0,18.8-5.1,18.8-11.4V90.2L277.3,81.9z"/>
		<ellipse class="st10" cx="271.3" cy="90.2" rx="18.8" ry="11.4"/>
		<path class="st28" d="M255.3,96.2c3.3,3.3,9.2,5.4,16,5.4c6.8,0,12.7-2.2,16-5.4c0.2-0.7,0.4-1.3,0.4-2.1c0-5.5-7.3-9.9-16.3-9.9
			S255,88.7,255,94.2C255,94.9,255.1,95.6,255.3,96.2z"/>
	</g>
	<path class="st24" d="M271.3,80.1c9.5,0,17.5,4.6,17.5,10.1s-8,10.1-17.5,10.1c-9.5,0-17.5-4.6-17.5-10.1S261.9,80.1,271.3,80.1
		 M271.3,78.8c-10.4,0-18.8,5.1-18.8,11.4c0,6.3,8.4,11.4,18.8,11.4c10.4,0,18.8-5.1,18.8-11.4C290.1,83.9,281.7,78.8,271.3,78.8
		L271.3,78.8z"/>
	<g>
		<path class="st10" d="M287.3,102.8l-0.7-0.4v0l0,0v0l0,0v0l0,0v0l0,0v0l0,0v0l0,0v0l0,0v0l0,0v0l0,0v0l0,0v0l0,0v0l0,0v0l0,0v0
			l0,0v0l0,0v0l0,0v0l0,0v0l0,0v0l0,0v0l0,0v0l0,0v0l0,0v0l0,0v0l0,0v0l0,0v0l0,0v0l0,0v0l0,0v0l0,0v0l0,0v0l0,0v0l0,0v0l0,0v0l0,0
			v0l0,0v0l0,0v0l0,0v0l0,0v0l0,0v0l0,0v0l0,0v0l0,0v0l0,0v0l0,0v0l0,0v0l0,0v0l0,0v0l0,0v0l0,0v0l0,0v0l0,0v0l0,0v0l0,0v0l0,0v0
			l0,0v0l0,0v0l0,0v0l0,0v0l0,0v0l0,0v0l0,0v0l0,0v0l0,0v0l0,0v0l0,0v0l0,0v0l0,0v0l0,0v0l0,0v0l0,0v0l0,0v0l0,0v0l0,0v0l0,0v0l0,0
			v0l0,0v0l0,0v0l0,0v0l0,0v0l0,0v0l0,0v0l0,0v0l0,0v0l0,0v0l0,0v0l0,0v0l0,0v0l0,0v0l0,0v0l0,0v0l0,0v0l0,0v0l0,0v0l0,0v0l0,0v0
			l0,0v0l0,0v0l0,0v0l0,0v0l0,0v0l0,0v0l0,0v0l0,0v0l0,0v0l0,0v0l0,0v0l0,0v0l0,0v0l0,0v0l0,0v0l0,0v0l0,0v0l0,0v0l0,0v0l0,0v0l0,0
			v0l0,0v0l0,0v0l0,0v0l0,0v0l0,0v0l0,0v0l0,0v0l0,0v0l0,0v0l0,0v0l0,0v0l0,0v0l0,0v0l0,0v0l0,0v0l0,0v0l0,0v0l0,0v0l0,0v0l0,0v0
			l0,0v0l0,0v0l0,0v0l0,0v0l0,0v0l0,0v0l0,0v0l0,0v0l0,0v0l0,0v0l0,0v0l0,0v0l0,0v0l0,0v0l0,0v0l0,0v0l0,0v0l0,0v0l0,0v0l0,0v0l0,0
			v0l0,0v0l0,0v0l0,0v0l0,0v0l0,0v0l0,0v0l0,0v0l0,0v0l0,0v0l0,0v0l0,0v0l0,0v0l0,0v0l0,0v0l0,0v0l0,0v0l0,0v0l0,0v0l0,0v0l0,0v0
			l0,0v0l0,0v0l0,0v0l0,0v0l0,0v0l0,0v0l0,0v0l0,0v0l0,0v0l0,0v0l0,0v0l0,0v0l0,0v0l0,0v0l0,0v0l0,0v0l0,0v0l0,0v0l0,0v0l0,0v0l0,0
			v0l0,0v0l0,0v0l0,0v0l0,0v0l0,0v0l0,0v0l0,0v0l0,0v0l0,0v0l0,0v0l0,0v0l0,0v0l0,0v0l0,0v0l0,0v0l0,0v0l0,0v0l0,0v0l0,0v0l0,0v0
			l0,0v0l0,0v0l0,0v0l0,0v0l0,0v0l0,0v0l0,0v0l0,0v0l0,0v0l0,0v0l0,0v0l0,0v0l0,0v0l0,0v0l0,0v0l0,0v0l0,0v0l0,0v0l0,0v0l0,0v0l0,0
			v0l0,0v0l0,0v0l0,0v0l0,0v0l0,0v0l0,0v0l0,0v0l0,0v0l0,0v0l0,0v0l0,0v0l0,0v0l0,0v0l0,0v0l0,0v0l0,0v0l0,0v0l0,0v0l0,0v0l0,0v0
			l0,0v0l0,0v0l0,0v0l0,0v0l0,0v0l0,0v0l0,0v0l0,0v0l0,0v0l0,0v0l0,0v0l0,0v0l0,0v0l0,0v0l0,0v0l0,0v0l0,0v0l0,0v0l0,0v0l0,0v0l0,0
			v0l0,0v0l0,0v0l0,0v0l0,0v0l0,0v0l0,0v0l0,0v0l0,0v0l0,0v0l0,0v0l0,0v0l0,0v0l0,0v0l0,0v0l0,0v0l0,0v0l0,0v0l0,0v0l0,0v0l0,0v0
			l0,0v3.2c3.2,2.1,5.1,5.8,5.1,9.6c0,1.2-0.4,2.4-1.2,3.3c-0.2,0-0.5,0.1-0.7,0.1v0c0,0,0,0,0,0v0c0,0,0,0,0,0v0c0,0,0,0,0,0v0
			c0,0,0,0,0,0v0c0,0,0,0,0,0v0c0,0,0,0,0,0v0c0,0,0,0,0,0v0c0,0,0,0,0,0v0c0,0,0,0,0,0v0c0,0,0,0,0,0v0c0,0,0,0,0,0v0c0,0,0,0,0,0
			v0c0,0,0,0,0,0v0c0,0,0,0,0,0v0c0,0,0,0,0,0v0c0,0,0,0,0,0v0c0,0,0,0,0,0v0c0,0,0,0,0,0v0c0,0,0,0,0,0v0c0,0,0,0,0,0v0
			c0,0,0,0,0,0v0c0,0,0,0,0,0v0c0,0,0,0,0,0v0c0,0,0,0,0,0v0c0,0,0,0,0,0v0c0,0,0,0,0,0v0c0,0,0,0,0,0v0c0,0,0,0,0,0v0c0,0,0,0,0,0
			v0c0,0,0,0,0,0v0c0,0,0,0,0,0v0c0,0,0,0,0,0v0c0,0,0,0,0,0v0c0,0,0,0,0,0v0c0,0,0,0,0,0v0c0,0,0,0,0,0v0c0,0,0,0,0,0v0
			c0,0,0,0,0,0v0c0,0,0,0,0,0v0c0,0,0,0,0,0v0c0,0,0,0,0,0v0c0,0,0,0,0,0v0c0,0,0,0,0,0v0c0,0,0,0,0,0v0c0,0,0,0,0,0v0c0,0,0,0,0,0
			v0c0,0,0,0,0,0v0c0,0,0,0,0,0v0c0,0,0,0,0,0v0c0,0,0,0,0,0v0c0,0,0,0,0,0v0c0,0,0,0,0,0v0c0,0,0,0,0,0v0c0,0,0,0,0,0v0
			c0,0,0,0,0,0v0c0,0,0,0,0,0v0c0,0,0,0,0,0v0c0,0,0,0,0,0v0c0,0,0,0,0,0v0c0,0,0,0,0,0v0c0,0,0,0,0,0v0c0,0,0,0,0,0v0c0,0,0,0,0,0
			v0c0,0,0,0,0,0v0c0,0,0,0,0,0v0c0,0,0,0,0,0v0c0,0,0,0,0,0v0c0,0,0,0,0,0v0c0,0,0,0,0,0v0c0,0,0,0,0,0v0c0,0,0,0,0,0v0
			c0,0,0,0,0,0v0c0,0,0,0,0,0v0c0,0,0,0,0,0v0c0,0,0,0,0,0v0c0,0,0,0,0,0v0c0,0,0,0,0,0v0c0,0,0,0,0,0v0c0,0,0,0,0,0v0c0,0,0,0,0,0
			v0c0,0,0,0,0,0v0c0,0,0,0,0,0v0c0,0,0,0,0,0v0c0,0,0,0,0,0v0c0,0,0,0,0,0v0c0,0,0,0,0,0v0c0,0,0,0,0,0v0c0,0,0,0,0,0v0
			c0,0,0,0,0,0v0c0,0,0,0,0,0v0c0,0,0,0,0,0v0c0,0,0,0,0,0v0c0,0,0,0,0,0v0c0,0,0,0,0,0v0c0,0,0,0,0,0v0c0,0,0,0,0,0v0c0,0,0,0,0,0
			v0c0,0,0,0,0,0v0c0,0,0,0,0,0v0c0,0,0,0,0,0v0c0,0,0,0,0,0v0c0,0,0,0,0,0v0c0,0,0,0,0,0v0c0,0,0,0,0,0v0c0,0,0,0,0,0v0
			c0,0,0,0,0,0v0c0,0,0,0,0,0v0c0,0,0,0,0,0v0c0,0,0,0,0,0v0c0,0,0,0,0,0v0c0,0,0,0,0,0v0c0,0,0,0,0,0v0c0,0,0,0,0,0v0c0,0,0,0,0,0
			v0c0,0,0,0,0,0v0c0,0,0,0,0,0v0c0,0,0,0,0,0v0c0,0,0,0,0,0v0c0,0,0,0,0,0v0c0,0,0,0,0,0v0c0,0,0,0,0,0v0c0,0,0,0,0,0v0
			c0,0,0,0,0,0v0c0,0,0,0,0,0v0c0,0,0,0,0,0v0c0,0,0,0,0,0v0c0,0,0,0,0,0v0c0,0,0,0,0,0v0c0,0,0,0,0,0v0c0,0,0,0,0,0v0c0,0,0,0,0,0
			v0c0,0,0,0,0,0v0c0,0,0,0,0,0v0c0,0,0,0,0,0v0c0,0,0,0,0,0v0c0,0,0,0,0,0v0c0,0,0,0,0,0v0c0,0,0,0,0,0v0c0,0,0,0,0,0v0
			c0,0,0,0,0,0v0c0,0,0,0,0,0v0c0,0,0,0,0,0v0c0,0,0,0,0,0v0c0,0,0,0,0,0v0c0,0,0,0,0,0v0c0,0,0,0,0,0v0c0,0,0,0,0,0v0c0,0,0,0,0,0
			v0c0,0,0,0,0,0v0c0,0,0,0,0,0v0c0,0,0,0,0,0v0c0,0,0,0,0,0v0c0,0,0,0,0,0v0c0,0,0,0,0,0v0c0,0,0,0,0,0v0c0,0,0,0,0,0v0
			c0,0,0,0,0,0v0c0,0,0,0,0,0v0c0,0,0,0,0,0v0c0,0,0,0,0,0v0c0,0,0,0,0,0v0c0,0,0,0,0,0v0c0,0,0,0,0,0v0c0,0,0,0,0,0v0c0,0,0,0,0,0
			v0c0,0,0,0,0,0v0c0,0,0,0,0,0v0c0,0,0,0,0,0v0c0,0,0,0,0,0v0c0,0,0,0,0,0v0c0,0,0,0,0,0v0c0,0,0,0,0,0v0c0,0,0,0,0,0v0
			c0,0,0,0,0,0v0c0,0,0,0,0,0v0c0,0,0,0,0,0v0c0,0,0,0,0,0v0c0,0,0,0,0,0v0c0,0,0,0,0,0v0c0,0,0,0,0,0v0c0,0,0,0,0,0v0c0,0,0,0,0,0
			v0c0,0,0,0,0,0v0c0,0,0,0,0,0v0c0,0,0,0,0,0v0c0,0,0,0,0,0v0c0,0,0,0,0,0v0c0,0,0,0,0,0v0c0,0,0,0,0,0v0c0,0,0,0,0,0v0
			c0,0,0,0,0,0v0c0,0,0,0,0,0v0c0,0,0,0,0,0v0c0,0,0,0,0,0v0c0,0,0,0,0,0v0c0,0,0,0,0,0v0c0,0,0,0,0,0v0c0,0,0,0,0,0v0c0,0,0,0,0,0
			v0c0,0,0,0,0,0v0c0,0,0,0,0,0v0c0,0,0,0,0,0v0c0,0,0,0,0,0v0c0,0,0,0,0,0v0c0,0,0,0,0,0v0c0,0,0,0,0,0v0c0,0,0,0,0,0v0
			c0,0,0,0,0,0v0c0,0,0,0,0,0v0c0,0,0,0,0,0v0c0,0,0,0,0,0v0c0,0,0,0,0,0v0c0,0,0,0,0,0v0c0,0,0,0,0,0v0c0,0,0,0,0,0v0c0,0,0,0,0,0
			v0c0,0,0,0,0,0v0c0,0,0,0,0,0v0c0,0,0,0,0,0v0c0,0,0,0,0,0v0c0,0,0,0,0,0v0c0,0,0,0,0,0v0c0,0,0,0,0,0v0c0,0,0,0,0,0v0
			c0,0,0,0,0,0v0c0,0,0,0,0,0v0c0,0,0,0,0,0v0c0,0,0,0,0,0v0c0,0,0,0,0,0v0c0,0,0,0,0,0v0c0,0,0,0,0,0v0c0,0,0,0,0,0v0c0,0,0,0,0,0
			v0c0,0,0,0,0,0v0c0,0,0,0,0,0v0c0,0,0,0,0,0v0c0,0,0,0,0,0v0c0,0,0,0,0,0v0c0,0,0,0,0,0v0c0,0,0,0,0,0v0c0,0,0,0,0,0v0
			c0,0,0,0,0,0v0c0,0,0,0,0,0v0c0,0,0,0,0,0v0c0,0,0,0,0,0v0c0,0,0,0,0,0v0c0,0,0,0,0,0v0c0,0,0,0,0,0v0c0,0,0,0,0,0v0c0,0,0,0,0,0
			v0c0,0,0,0,0,0v0c0,0,0,0,0,0v0c0,0,0,0,0,0v0c0,0,0,0,0,0v0c0,0,0,0,0,0v0c0,0,0,0,0,0v0c0,0,0,0,0,0v0c0,0,0,0,0,0v0
			c0,0,0,0,0,0v0c0,0,0,0,0,0v0c0,0,0,0,0,0v0c0,0,0,0,0,0v0c0,0,0,0,0,0v0c0,0,0,0,0,0v0c0,0,0,0,0,0v0c0,0,0,0,0,0v0c0,0,0,0,0,0
			v0c0,0,0,0,0,0v0c0,0,0,0,0,0v0c0,0,0,0,0,0v0c0,0,0,0,0,0v0c0,0,0,0,0,0v0c0,0,0,0,0,0v0c0,0,0,0,0,0v0c0,0,0,0,0,0v0
			c0,0,0,0,0,0v0c0,0,0,0,0,0v0c0,0,0,0,0,0v0c0,0,0,0,0,0v0c0,0,0,0,0,0v0c0,0,0,0,0,0v0c0,0,0,0,0,0v0c0,0,0,0,0,0v0c0,0,0,0,0,0
			v0c0,0,0,0,0,0v0c0,0,0,0,0,0v0c0,0,0,0,0,0v0c0,0,0,0,0,0v0c0,0,0,0,0,0v0c0,0,0,0,0,0v0c0,0,0,0,0,0v0c0,0,0,0,0,0v0
			c0,0,0,0,0,0v0c0,0,0,0,0,0v0c0,0,0,0,0,0v0c0,0,0,0,0,0v0c0,0,0,0,0,0v0c0,0,0,0,0,0v0c0,0,0,0,0,0v0c0,0,0,0,0,0v0c0,0,0,0,0,0
			v2.7c1.3,0,2.7-0.4,3.9-1.1c0,0,0,0,0,0c0,0,0,0,0,0c0,0,0,0,0,0c0,0,0,0,0,0c0,0,0,0,0,0c0,0,0,0,0,0c0,0,0,0,0,0c0,0,0,0,0,0
			c0,0,0,0,0,0c0,0,0,0,0,0c0,0,0,0,0,0c0,0,0,0,0,0c0,0,0,0,0,0c0,0,0,0,0,0c0,0,0,0,0,0c0,0,0,0,0,0c0,0,0,0,0,0c0,0,0,0,0,0
			c0,0,0,0,0,0c0,0,0,0,0,0c0,0,0,0,0,0c0,0,0,0,0,0c0,0,0,0,0,0c0,0,0,0,0,0c0,0,0,0,0,0c0,0,0,0,0,0c0,0,0,0,0,0c0,0,0,0,0,0
			c0,0,0,0,0,0c0,0,0,0,0,0c0,0,0,0,0,0c0,0,0,0,0,0c0,0,0,0,0,0c0,0,0,0,0,0c0,0,0,0,0,0c0,0,0,0,0,0c0,0,0,0,0,0c0,0,0,0,0,0
			c0,0,0,0,0,0c0,0,0,0,0,0c0,0,0,0,0,0c0,0,0,0,0,0c0,0,0,0,0,0c0,0,0,0,0,0c0,0,0,0,0,0c0,0,0,0,0,0c0,0,0,0,0,0c0,0,0,0,0,0
			c0,0,0,0,0,0c0,0,0,0,0,0c0,0,0,0,0,0c0,0,0,0,0,0c0,0,0,0,0,0c0,0,0,0,0,0c0,0,0,0,0,0c0,0,0,0,0,0c0,0,0,0,0,0c0,0,0,0,0,0
			c0,0,0,0,0,0c0,0,0,0,0,0c0,0,0,0,0,0c0,0,0,0,0,0c0,0,0,0,0,0c0,0,0,0,0,0c0,0,0,0,0,0c0,0,0,0,0,0c0,0,0,0,0,0c0,0,0,0,0,0
			c0,0,0,0,0,0c0,0,0,0,0,0c0,0,0,0,0,0c0,0,0,0,0,0c0,0,0,0,0,0c0,0,0,0,0,0c0,0,0,0,0,0c0,0,0,0,0,0c0,0,0,0,0,0c0,0,0,0,0,0
			c0,0,0,0,0,0c0,0,0,0,0,0c0,0,0,0,0,0c0,0,0,0,0,0c0,0,0,0,0,0c0,0,0,0,0,0c0,0,0,0,0,0c0,0,0,0,0,0c0,0,0,0,0,0c0,0,0,0,0,0
			c0,0,0,0,0,0c0,0,0,0,0,0c0,0,0,0,0,0c0,0,0,0,0,0c0,0,0,0,0,0c0,0,0,0,0,0c0,0,0,0,0,0c0,0,0,0,0,0c0,0,0,0,0,0c0,0,0,0,0,0
			c0,0,0,0,0,0c0,0,0,0,0,0c0,0,0,0,0,0c0,0,0,0,0,0c0,0,0,0,0,0c0,0,0,0,0,0c0,0,0,0,0,0c0,0,0,0,0,0c0,0,0,0,0,0c0,0,0,0,0,0
			c0,0,0,0,0,0c0,0,0,0,0,0c0,0,0,0,0,0c0,0,0,0,0,0c0,0,0,0,0,0c0,0,0,0,0,0c0,0,0,0,0,0c0,0,0,0,0,0c0,0,0,0,0,0c0,0,0,0,0,0
			c0,0,0,0,0,0c0,0,0,0,0,0c0,0,0,0,0,0c0,0,0,0,0,0c0,0,0,0,0,0c0,0,0,0,0,0c0,0,0,0,0,0c0,0,0,0,0,0c0,0,0,0,0,0c0,0,0,0,0,0
			c0,0,0,0,0,0c0,0,0,0,0,0c0,0,0,0,0,0c0,0,0,0,0,0c0,0,0,0,0,0c0,0,0,0,0,0c0,0,0,0,0,0c0,0,0,0,0,0c0,0,0,0,0,0c0,0,0,0,0,0
			c0,0,0,0,0,0c0,0,0,0,0,0c0,0,0,0,0,0c0,0,0,0,0,0c0,0,0,0,0,0c0,0,0,0,0,0c0,0,0,0,0,0c0,0,0,0,0,0c0,0,0,0,0,0c0,0,0,0,0,0
			c0,0,0,0,0,0c0,0,0,0,0,0c0,0,0,0,0,0c0,0,0,0,0,0c0,0,0,0,0,0c0,0,0,0,0,0c0,0,0,0,0,0c0,0,0,0,0,0c0,0,0,0,0,0c0,0,0,0,0,0
			c0,0,0,0,0,0c0,0,0,0,0,0c0,0,0,0,0,0c0,0,0,0,0,0c0,0,0,0,0,0c0,0,0,0,0,0c0,0,0,0,0,0c0,0,0,0,0,0c0,0,0,0,0,0c0,0,0,0,0,0
			c0,0,0,0,0,0c0,0,0,0,0,0c0,0,0,0,0,0c0,0,0,0,0,0c0,0,0,0,0,0c0,0,0,0,0,0c0,0,0,0,0,0c0,0,0,0,0,0c0,0,0,0,0,0c0,0,0,0,0,0
			c0,0,0,0,0,0c0,0,0,0,0,0c0,0,0,0,0,0c0,0,0,0,0,0c0,0,0,0,0,0c0,0,0,0,0,0c0,0,0,0,0,0c0,0,0,0,0,0c0,0,0,0,0,0c0,0,0,0,0,0
			c0,0,0,0,0,0c0,0,0,0,0,0c0,0,0,0,0,0c0,0,0,0,0,0c0,0,0,0,0,0c0,0,0,0,0,0c0,0,0,0,0,0c0,0,0,0,0,0c0,0,0,0,0,0c0,0,0,0,0,0
			c0,0,0,0,0,0c0,0,0,0,0,0c0,0,0,0,0,0c0,0,0,0,0,0c0,0,0,0,0,0c0,0,0,0,0,0c0,0,0,0,0,0c0,0,0,0,0,0c0,0,0,0,0,0c0,0,0,0,0,0
			c0,0,0,0,0,0c0,0,0,0,0,0c0,0,0,0,0,0c0,0,0,0,0,0c0,0,0,0,0,0c0,0,0,0,0,0c0,0,0,0,0,0c0,0,0,0,0,0c0,0,0,0,0,0c0,0,0,0,0,0
			c0,0,0,0,0,0c0,0,0,0,0,0c0,0,0,0,0,0c0,0,0,0,0,0c0,0,0,0,0,0c0,0,0,0,0,0c0,0,0,0,0,0c0,0,0,0,0,0c0,0,0,0,0,0c0,0,0,0,0,0
			c0,0,0,0,0,0c0,0,0,0,0,0c0,0,0,0,0,0c0,0,0,0,0,0c0,0,0,0,0,0c0,0,0,0,0,0c0,0,0,0,0,0c0,0,0,0,0,0c0,0,0,0,0,0c0,0,0,0,0,0
			c0,0,0,0,0,0c0,0,0,0,0,0c0,0,0,0,0,0c0,0,0,0,0,0c0,0,0,0,0,0c0,0,0,0,0,0c0,0,0,0,0,0c0,0,0,0,0,0c0,0,0,0,0,0c0,0,0,0,0,0
			c0,0,0,0,0,0c0,0,0,0,0,0c0,0,0,0,0,0c0,0,0,0,0,0c0,0,0,0,0,0c0,0,0,0,0,0c0,0,0,0,0,0c0,0,0,0,0,0c0,0,0,0,0,0c0,0,0,0,0,0
			c0,0,0,0,0,0c0,0,0,0,0,0c0,0,0,0,0,0c0,0,0,0,0,0c0,0,0,0,0,0c0,0,0,0,0,0c0,0,0,0,0,0c0,0,0,0,0,0c0,0,0,0,0,0c0,0,0,0,0,0
			c0,0,0,0,0,0c0,0,0,0,0,0c0,0,0,0,0,0c0,0,0,0,0,0c0,0,0,0,0,0c0,0,0,0,0,0c0,0,0,0,0,0c0,0,0,0,0,0c0,0,0,0,0,0c0,0,0,0,0,0
			c0,0,0,0,0,0c0,0,0,0,0,0c0,0,0,0,0,0c0,0,0,0,0,0c0,0,0,0,0,0c0,0,0,0,0,0c0,0,0,0,0,0c0,0,0,0,0,0c0,0,0,0,0,0c0,0,0,0,0,0
			c0,0,0,0,0,0c0,0,0,0,0,0c0,0,0,0,0,0c0,0,0,0,0,0c0,0,0,0,0,0c0,0,0,0,0,0c0,0,0,0,0,0c0,0,0,0,0,0c0,0,0,0,0,0c0,0,0,0,0,0
			c0,0,0,0,0,0c0,0,0,0,0,0c0,0,0,0,0,0c0,0,0,0,0,0c0,0,0,0,0,0c0,0,0,0,0,0c0,0,0,0,0,0c0,0,0,0,0,0c0,0,0,0,0,0c0,0,0,0,0,0
			c0,0,0,0,0,0c0,0,0,0,0,0c0,0,0,0,0,0c0,0,0,0,0,0c0,0,0,0,0,0c0,0,0,0,0,0c0,0,0,0,0,0c0,0,0,0,0,0c0,0,0,0,0,0c0,0,0,0,0,0
			c0,0,0,0,0,0c0,0,0,0,0,0c0,0,0,0,0,0c0,0,0,0,0,0c0,0,0,0,0,0c0,0,0,0,0,0c0,0,0,0,0,0c0,0,0,0,0,0c0,0,0,0,0,0c0,0,0,0,0,0
			c0,0,0,0,0,0c0,0,0,0,0,0c0,0,0,0,0,0c0,0,0,0,0,0c0,0,0,0,0,0c0,0,0,0,0,0c0,0,0,0,0,0c0,0,0,0,0,0c0,0,0,0,0,0c0,0,0,0,0,0
			c0,0,0,0,0,0c0,0,0,0,0,0c0,0,0,0,0,0c0,0,0,0,0,0c0,0,0,0,0,0c0,0,0,0,0,0c0,0,0,0,0,0c0,0,0,0,0,0c0,0,0,0,0,0c0,0,0,0,0,0
			c0,0,0,0,0,0c0,0,0,0,0,0c0,0,0,0,0,0c0,0,0,0,0,0c0,0,0,0,0,0c0,0,0,0,0,0c0,0,0,0,0,0c0,0,0,0,0,0c0,0,0,0,0,0c0,0,0,0,0,0
			c0,0,0,0,0,0c0,0,0,0,0,0c0,0,0,0,0,0c0,0,0,0,0,0c0,0,0,0,0,0c0,0,0,0,0,0c0,0,0,0,0,0c0,0,0,0,0,0c0,0,0,0,0,0c0,0,0,0,0,0
			c0,0,0,0,0,0c0,0,0,0,0,0c0,0,0,0,0,0c0,0,0,0,0,0c0,0,0,0,0,0c0,0,0,0,0,0c0,0,0,0,0,0c0,0,0,0,0,0c0,0,0,0,0,0c0,0,0,0,0,0
			c0,0,0,0,0,0c0,0,0,0,0,0c0,0,0,0,0,0c0,0,0,0,0,0c0,0,0,0,0,0c0,0,0,0,0,0c0,0,0,0,0,0c0,0,0,0,0,0c0,0,0,0,0,0c0,0,0,0,0,0
			c0,0,0,0,0,0c0,0,0,0,0,0c0,0,0,0,0,0c0,0,0,0,0,0c0,0,0,0,0,0c0,0,0,0,0,0c0,0,0,0,0,0c0,0,0,0,0,0c0,0,0,0,0,0c0,0,0,0,0,0
			c0,0,0,0,0,0c0,0,0,0,0,0c0,0,0,0,0,0c0,0,0,0,0,0c0,0,0,0,0,0c0,0,0,0,0,0c0,0,0,0,0,0c0,0,0,0,0,0c0,0,0,0,0,0c0,0,0,0,0,0
			c0,0,0,0,0,0c0,0,0,0,0,0c0,0,0,0,0,0c0,0,0,0,0,0c0,0,0,0,0,0c0,0,0,0,0,0c0,0,0,0,0,0c0,0,0,0,0,0c0,0,0,0,0,0c0,0,0,0,0,0
			c0,0,0,0,0,0c0,0,0,0,0,0c0,0,0,0,0,0c0,0,0,0,0,0c0,0,0,0,0,0c0,0,0,0,0,0c0,0,0,0,0,0c0,0,0,0,0,0c0,0,0,0,0,0c0,0,0,0,0,0
			c0,0,0,0,0,0c0,0,0,0,0,0c0,0,0,0,0,0c0,0,0,0,0,0c0,0,0,0,0,0c0,0,0,0,0,0c0,0,0,0,0,0c0,0,0,0,0,0c0,0,0,0,0,0c0,0,0,0,0,0
			c0,0,0,0,0,0c0,0,0,0,0,0c0,0,0,0,0,0c0,0,0,0,0,0c0,0,0,0,0,0c0,0,0,0,0,0c0,0,0,0,0,0c0,0,0,0,0,0c0,0,0,0,0,0c0,0,0,0,0,0
			c0,0,0,0,0,0c0,0,0,0,0,0c0,0,0,0,0,0c0,0,0,0,0,0c0,0,0,0,0,0c0,0,0,0,0,0c0,0,0,0,0,0c0,0,0,0,0,0c0,0,0,0,0,0c0,0,0,0,0,0
			c0,0,0,0,0,0c0,0,0,0,0,0c0,0,0,0,0,0c0,0,0,0,0,0c0,0,0,0,0,0c0,0,0,0,0,0c0,0,0,0,0,0c0,0,0,0,0,0c0,0,0,0,0,0c0,0,0,0,0,0
			c0,0,0,0,0,0c0,0,0,0,0,0c0,0,0,0,0,0c0,0,0,0,0,0c0,0,0,0,0,0c0,0,0,0,0,0c0,0,0,0,0,0c0,0,0,0,0,0c0,0,0,0,0,0c0,0,0,0,0,0
			c0,0,0,0,0,0c0,0,0,0,0,0c0,0,0,0,0,0c0,0,0,0,0,0c0,0,0,0,0,0c0,0,0,0,0,0c0,0,0,0,0,0c0,0,0,0,0,0c0,0,0,0,0,0c0,0,0,0,0,0
			c0,0,0,0,0,0c0,0,0,0,0,0c0,0,0,0,0,0c0,0,0,0,0,0c0,0,0,0,0,0c0,0,0,0,0,0c0,0,0,0,0,0c0,0,0,0,0,0c0,0,0,0,0,0c0,0,0,0,0,0
			c0,0,0,0,0,0c0,0,0,0,0,0c0,0,0,0,0,0c0,0,0,0,0,0c0,0,0,0,0,0c0,0,0,0,0,0c0,0,0,0,0,0c0,0,0,0,0,0c0,0,0,0,0,0c0,0,0,0,0,0
			c0,0,0,0,0,0c0,0,0,0,0,0c0,0,0,0,0,0c0,0,0,0,0,0c0,0,0,0,0,0c0,0,0,0,0,0c0,0,0,0,0,0c0,0,0,0,0,0c0,0,0,0,0,0c0,0,0,0,0,0
			c0,0,0,0,0,0c0,0,0,0,0,0c0,0,0,0,0,0c0,0,0,0,0,0c0,0,0,0,0,0c0,0,0,0,0,0c0,0,0,0,0,0c0,0,0,0,0,0c0,0,0,0,0,0c0,0,0,0,0,0
			c0,0,0,0,0,0c0,0,0,0,0,0c0,0,0,0,0,0c0,0,0,0,0,0c0,0,0,0,0,0c0,0,0,0,0,0c0,0,0,0,0,0c0,0,0,0,0,0c0,0,0,0,0,0c0,0,0,0,0,0
			c0,0,0,0,0,0c0,0,0,0,0,0c0,0,0,0,0,0c0,0,0,0,0,0c0,0,0,0,0,0c0,0,0,0,0,0c0,0,0,0,0,0c0,0,0,0,0,0c0,0,0,0,0,0c0,0,0,0,0,0
			c0,0,0,0,0,0c0,0,0,0,0,0c0,0,0,0,0,0c0,0,0,0,0,0c0,0,0,0,0,0c0,0,0,0,0,0c0,0,0,0,0,0c0,0,0,0,0,0c0,0,0,0,0,0c0,0,0,0,0,0
			c0,0,0,0,0,0c0,0,0,0,0,0c0,0,0,0,0,0c0,0,0,0,0,0c0,0,0,0,0,0c0,0,0,0,0,0c0,0,0,0,0,0c0,0,0,0,0,0c0,0,0,0,0,0c0,0,0,0,0,0
			c0,0,0,0,0,0c0,0,0,0,0,0c0,0,0,0,0,0c0,0,0,0,0,0c0,0,0,0,0,0c0,0,0,0,0,0c0,0,0,0,0,0c0,0,0,0,0,0c0,0,0,0,0,0c0,0,0,0,0,0
			c0,0,0,0,0,0c0,0,0,0,0,0c0,0,0,0,0,0c0,0,0,0,0,0c0,0,0,0,0,0c0,0,0,0,0,0c0,0,0,0,0,0c0,0,0,0,0,0c0,0,0,0,0,0c0,0,0,0,0,0
			c0,0,0,0,0,0c0,0,0,0,0,0c0,0,0,0,0,0c0,0,0,0,0,0c0,0,0,0,0,0c0,0,0,0,0,0c0,0,0,0,0,0c0,0,0,0,0,0c0,0,0,0,0,0c0,0,0,0,0,0
			c0,0,0,0,0,0c0,0,0,0,0,0c0,0,0,0,0,0c0,0,0,0,0,0c2.5-1.4,3.9-4,3.9-6.8C294.5,110.1,291.8,105.4,287.3,102.8z"/>
		<path class="st24" d="M284.1,104.6l-0.7-0.4v3.2c3.2,2.1,5.1,5.8,5.1,9.6c0,1.9-1,3.5-2.6,4.4c-0.8,0.5-1.7,0.7-2.6,0.7v2.7
			c1.3,0,2.7-0.4,3.9-1.1c2.5-1.4,3.9-4,3.9-6.8C291.3,112,288.5,107.2,284.1,104.6z"/>
	</g>
</g>
<g>
	<g>
		<g>
			<path class="st1" d="M103.3,78.5l108.5-62.2c2-1.1,4.5-1.7,6.7-1.1c3.1,0.7,6,1.7,6,4.4l0.2,100.9l-9.5,5.6
				c3.1,1.5,98.4,47.9,98.6,48l0.2,3.9c0,1.7-0.9,3.2-2.3,4.1c-16.2,9.4-111.2,64.3-111.2,64.3c-3.1,1.8-7,1.8-10.1,0l-90.3-52.2
				c-0.9-0.5-1.5-1.5-1.5-2.6L98.2,87.2C98.3,83.6,100.2,80.3,103.3,78.5z"/>
			<g>
				<path class="st2" d="M101.4,191.2l123.3-70.3L225,20.2c0-2.9-3.1-4.7-5.7-3.3L105.6,82c-2.5,1.4-4,4-4,6.9L101.4,191.2z"/>
				<polygon class="st2" points="219.9,22.7 107,87.5 106.8,182.3 219.9,117.4 				"/>
			</g>
			<g>
				<path class="st10" d="M101.5,191.2l123.2-71.1l87.1,50.4c2.5,1.5,2.5,5.1,0,6.5l-113.5,65.6c-2.5,1.4-5.5,1.4-8,0L101.5,191.2z"
					/>
			</g>
			<g>
				<g>
					<path class="st1" d="M135.6,193.4c-2.5,1.4-3.7,2.1-6.1,3.5c-2.5-1.4-3.7-2.1-6.2-3.5c2.5-1.4,3.7-2.1,6.1-3.5
						C131.9,191.3,133.1,192,135.6,193.4z"/>
					<path class="st1" d="M144.7,188.2c-2.5,1.4-3.7,2.1-6.1,3.5c-2.5-1.4-3.7-2.1-6.2-3.5c2.5-1.4,3.7-2.1,6.1-3.5
						C141,186.1,142.2,186.8,144.7,188.2z"/>
					<path class="st1" d="M153.7,183c-2.5,1.4-3.7,2.1-6.1,3.5c-2.5-1.4-3.7-2.1-6.2-3.5c2.5-1.4,3.7-2.1,6.1-3.5
						C150,180.9,151.3,181.6,153.7,183z"/>
					<path class="st1" d="M162.8,177.8c-2.5,1.4-3.7,2.1-6.1,3.5c-2.5-1.4-3.7-2.1-6.2-3.5c2.5-1.4,3.7-2.1,6.1-3.5
						C159.1,175.7,160.3,176.4,162.8,177.8z"/>
					<path class="st1" d="M171.8,172.6c-2.5,1.4-3.7,2.1-6.1,3.5c-2.5-1.4-3.7-2.1-6.2-3.5c2.5-1.4,3.7-2.1,6.1-3.5
						C168.1,170.5,169.4,171.2,171.8,172.6z"/>
					<path class="st1" d="M180.9,167.4c-2.5,1.4-3.7,2.1-6.1,3.5c-2.5-1.4-3.7-2.1-6.2-3.5c2.5-1.4,3.7-2.1,6.1-3.5
						C177.2,165.3,178.4,166,180.9,167.4z"/>
					<path class="st1" d="M190,162.2c-2.5,1.4-3.7,2.1-6.1,3.5c-2.5-1.4-3.7-2.1-6.2-3.5c2.5-1.4,3.7-2.1,6.1-3.5
						C186.2,160.1,187.5,160.8,190,162.2z"/>
					<path class="st1" d="M199,157c-2.5,1.4-3.7,2.1-6.1,3.5c-2.5-1.4-3.7-2.1-6.2-3.5c2.5-1.4,3.7-2.1,6.1-3.5
						C195.3,154.9,196.5,155.6,199,157z"/>
					<path class="st1" d="M208.1,151.8c-2.5,1.4-3.7,2.1-6.1,3.5c-2.5-1.4-3.7-2.1-6.2-3.5c2.5-1.4,3.7-2.1,6.1-3.5
						C204.4,149.7,205.6,150.4,208.1,151.8z"/>
					<path class="st1" d="M217.1,146.6c-2.5,1.4-3.7,2.1-6.1,3.5c-2.5-1.4-3.7-2.1-6.2-3.5c2.5-1.4,3.7-2.1,6.1-3.5
						C213.4,144.5,214.7,145.2,217.1,146.6z"/>
					<path class="st1" d="M226.2,141.4c-2.5,1.4-3.7,2.1-6.1,3.5c-2.5-1.4-3.7-2.1-6.2-3.5c2.5-1.4,3.7-2.1,6.1-3.5
						C222.5,139.3,223.7,140,226.2,141.4z"/>
					<path class="st1" d="M235.2,136.2c-2.5,1.4-3.7,2.1-6.1,3.5c-2.5-1.4-3.7-2.1-6.2-3.5c2.5-1.4,3.7-2.1,6.1-3.5
						C231.5,134.1,232.8,134.8,235.2,136.2z"/>
					<path class="st1" d="M144.3,198.3c-2.5,1.4-3.7,2.1-6.1,3.5c-2.5-1.4-3.7-2.1-6.2-3.5c2.5-1.4,3.7-2.1,6.1-3.5
						C140.6,196.2,141.8,196.9,144.3,198.3z"/>
					<path class="st1" d="M153.4,193.1c-2.5,1.4-3.7,2.1-6.1,3.5c-2.5-1.4-3.7-2.1-6.2-3.5c2.5-1.4,3.7-2.1,6.1-3.5
						C149.7,191,150.9,191.7,153.4,193.1z"/>
					<path class="st1" d="M162.4,187.9c-2.5,1.4-3.7,2.1-6.1,3.5c-2.5-1.4-3.7-2.1-6.2-3.5c2.5-1.4,3.7-2.1,6.1-3.5
						C158.7,185.8,160,186.5,162.4,187.9z"/>
					<path class="st1" d="M171.5,182.7c-2.5,1.4-3.7,2.1-6.1,3.5c-2.5-1.4-3.7-2.1-6.2-3.5c2.5-1.4,3.7-2.1,6.1-3.5
						C167.8,180.6,169,181.3,171.5,182.7z"/>
					<path class="st1" d="M180.6,177.5c-2.5,1.4-3.7,2.1-6.1,3.5c-2.5-1.4-3.7-2.1-6.2-3.5c2.5-1.4,3.7-2.1,6.1-3.5
						C176.8,175.4,178.1,176.1,180.6,177.5z"/>
					<path class="st1" d="M189.6,172.3c-2.5,1.4-3.7,2.1-6.1,3.5c-2.5-1.4-3.7-2.1-6.2-3.5c2.5-1.4,3.7-2.1,6.1-3.5
						C185.9,170.2,187.1,170.9,189.6,172.3z"/>
					<path class="st1" d="M198.7,167.1c-2.5,1.4-3.7,2.1-6.1,3.5c-2.5-1.4-3.7-2.1-6.2-3.5c2.5-1.4,3.7-2.1,6.1-3.5
						C194.9,165,196.2,165.7,198.7,167.1z"/>
					<path class="st1" d="M207.7,161.9c-2.5,1.4-3.7,2.1-6.1,3.5c-2.5-1.4-3.7-2.1-6.2-3.5c2.5-1.4,3.7-2.1,6.1-3.5
						C204,159.8,205.2,160.5,207.7,161.9z"/>
					<path class="st1" d="M216.8,156.7c-2.5,1.4-3.7,2.1-6.1,3.5c-2.5-1.4-3.7-2.1-6.2-3.5c2.5-1.4,3.7-2.1,6.1-3.5
						C213.1,154.6,214.3,155.3,216.8,156.7z"/>
					<path class="st1" d="M225.8,151.5c-2.5,1.4-3.7,2.1-6.1,3.5c-2.5-1.4-3.7-2.1-6.2-3.5c2.5-1.4,3.7-2.1,6.1-3.5
						C222.1,149.4,223.4,150.1,225.8,151.5z"/>
					<path class="st1" d="M234.9,146.3c-2.5,1.4-3.7,2.1-6.1,3.5c-2.5-1.4-3.7-2.1-6.2-3.5c2.5-1.4,3.7-2.1,6.1-3.5
						C231.2,144.2,232.4,144.9,234.9,146.3z"/>
					<path class="st1" d="M244,141.1c-4.1,2.4-6.2,3.5-10.3,5.9c-2.5-1.4-3.7-2.1-6.2-3.5c4.1-2.4,6.2-3.5,10.3-5.9
						C240.2,139,241.5,139.7,244,141.1z"/>
					<path class="st1" d="M157.1,200.9c-4.1,2.3-6.1,3.5-10.2,5.9c-2.5-1.4-3.7-2.1-6.2-3.5c4.1-2.3,6.1-3.5,10.2-5.9
						C153.4,198.8,154.6,199.5,157.1,200.9z"/>
					<path class="st1" d="M162.1,198c-2.5,1.4-3.7,2.1-6.1,3.5c-2.5-1.4-3.7-2.1-6.2-3.5c2.5-1.4,3.7-2.1,6.1-3.5
						C158.4,195.9,159.6,196.6,162.1,198z"/>
					<path class="st1" d="M171.1,192.8c-2.5,1.4-3.7,2.1-6.1,3.5c-2.5-1.4-3.7-2.1-6.2-3.5c2.5-1.4,3.7-2.1,6.1-3.5
						C167.4,190.7,168.7,191.4,171.1,192.8z"/>
					<path class="st1" d="M180.2,187.6c-2.5,1.4-3.7,2.1-6.1,3.5c-2.5-1.4-3.7-2.1-6.2-3.5c2.5-1.4,3.7-2.1,6.1-3.5
						C176.5,185.5,177.7,186.2,180.2,187.6z"/>
					<path class="st1" d="M189.3,182.4c-2.5,1.4-3.7,2.1-6.1,3.5c-2.5-1.4-3.7-2.1-6.2-3.5c2.5-1.4,3.7-2.1,6.1-3.5
						C185.5,180.3,186.8,181,189.3,182.4z"/>
					<path class="st1" d="M198.3,177.2c-2.5,1.4-3.7,2.1-6.1,3.5c-2.5-1.4-3.7-2.1-6.2-3.5c2.5-1.4,3.7-2.1,6.1-3.5
						C194.6,175.1,195.8,175.8,198.3,177.2z"/>
					<path class="st1" d="M207.4,172c-2.5,1.4-3.7,2.1-6.1,3.5c-2.5-1.4-3.7-2.1-6.2-3.5c2.5-1.4,3.7-2.1,6.1-3.5
						C203.7,169.9,204.9,170.6,207.4,172z"/>
					<path class="st1" d="M216.4,166.8c-2.5,1.4-3.7,2.1-6.1,3.5c-2.5-1.4-3.7-2.1-6.2-3.5c2.5-1.4,3.7-2.1,6.1-3.5
						C212.7,164.7,214,165.4,216.4,166.8z"/>
					<path class="st1" d="M225.5,161.6c-2.5,1.4-3.7,2.1-6.1,3.5c-2.5-1.4-3.7-2.1-6.2-3.5c2.5-1.4,3.7-2.1,6.1-3.5
						C221.8,159.5,223,160.2,225.5,161.6z"/>
					<path class="st1" d="M234.5,156.4c-2.5,1.4-3.7,2.1-6.1,3.5c-2.5-1.4-3.7-2.1-6.2-3.5c2.5-1.4,3.7-2.1,6.1-3.5
						C230.8,154.3,232.1,155,234.5,156.4z"/>
					<path class="st1" d="M243.6,151.2c-2.5,1.4-3.7,2.1-6.1,3.5c-2.5-1.4-3.7-2.1-6.2-3.5c2.5-1.4,3.7-2.1,6.1-3.5
						C239.9,149.1,241.1,149.8,243.6,151.2z"/>
					<path class="st1" d="M252.7,146c-2.5,1.4-3.7,2.1-6.1,3.5c-2.5-1.4-3.7-2.1-6.2-3.5c2.5-1.4,3.7-2.1,6.1-3.5
						C248.9,143.9,250.2,144.6,252.7,146z"/>
					<path class="st1" d="M161.7,208.1c-2.5,1.4-3.7,2.1-6.1,3.5c-2.5-1.4-3.7-2.1-6.2-3.5c2.5-1.4,3.7-2.1,6.1-3.5
						C158,206,159.3,206.7,161.7,208.1z"/>
					<path class="st1" d="M170.8,202.9c-2.5,1.4-3.7,2.1-6.1,3.5c-2.5-1.4-3.7-2.1-6.2-3.5c2.5-1.4,3.7-2.1,6.1-3.5
						C167.1,200.8,168.3,201.5,170.8,202.9z"/>
					<path class="st1" d="M179.9,197.7c-2.5,1.4-3.7,2.1-6.1,3.5c-2.5-1.4-3.7-2.1-6.2-3.5c2.5-1.4,3.7-2.1,6.1-3.5
						C176.1,195.6,177.4,196.3,179.9,197.7z"/>
					<path class="st1" d="M188.9,192.5c-2.5,1.4-3.7,2.1-6.1,3.5c-2.5-1.4-3.7-2.1-6.2-3.5c2.5-1.4,3.7-2.1,6.1-3.5
						C185.2,190.4,186.4,191.1,188.9,192.5z"/>
					<path class="st1" d="M198,187.3c-2.5,1.4-3.7,2.1-6.1,3.5c-2.5-1.4-3.7-2.1-6.2-3.5c2.5-1.4,3.7-2.1,6.1-3.5
						C194.2,185.2,195.5,185.9,198,187.3z"/>
					<path class="st1" d="M207,182.1c-2.5,1.4-3.7,2.1-6.1,3.5c-2.5-1.4-3.7-2.1-6.2-3.5c2.5-1.4,3.7-2.1,6.1-3.5
						C203.3,180,204.5,180.7,207,182.1z"/>
					<path class="st1" d="M216.1,176.9c-2.5,1.4-3.7,2.1-6.1,3.5c-2.5-1.4-3.7-2.1-6.2-3.5c2.5-1.4,3.7-2.1,6.1-3.5
						C212.4,174.8,213.6,175.5,216.1,176.9z"/>
					<path class="st1" d="M225.1,171.7c-2.5,1.4-3.7,2.1-6.1,3.5c-2.5-1.4-3.7-2.1-6.2-3.5c2.5-1.4,3.7-2.1,6.1-3.5
						C221.4,169.6,222.7,170.3,225.1,171.7z"/>
					<path class="st1" d="M234.2,166.5c-2.5,1.4-3.7,2.1-6.1,3.5c-2.5-1.4-3.7-2.1-6.2-3.5c2.5-1.4,3.7-2.1,6.1-3.5
						C230.5,164.4,231.7,165.1,234.2,166.5z"/>
					<path class="st1" d="M243.3,161.3c-2.5,1.4-3.7,2.1-6.1,3.5c-2.5-1.4-3.7-2.1-6.2-3.5c2.5-1.4,3.7-2.1,6.1-3.5
						C239.5,159.2,240.8,159.9,243.3,161.3z"/>
					<path class="st1" d="M256.2,153.9c-4,2.3-6,3.5-10,5.8c-2.5-1.4-3.7-2.1-6.2-3.5c4-2.3,6-3.5,10-5.8
						C252.5,151.8,253.7,152.5,256.2,153.9z"/>
					<path class="st1" d="M261.4,150.9c-2.5,1.4-3.7,2.1-6.1,3.5c-2.5-1.4-3.7-2.1-6.2-3.5c2.5-1.4,3.7-2.1,6.1-3.5
						C257.6,148.8,258.9,149.5,261.4,150.9z"/>
					<path class="st1" d="M171.7,213.7c-2.5,1.4-3.7,2.1-6.1,3.5c-2.5-1.4-3.7-2.1-6.2-3.5c2.5-1.4,3.7-2.1,6.1-3.5
						C167.9,211.6,169.2,212.3,171.7,213.7z"/>
					<path class="st1" d="M180.7,208.5c-2.5,1.4-3.7,2.1-6.1,3.5c-2.5-1.4-3.7-2.1-6.2-3.5c2.5-1.4,3.7-2.1,6.1-3.5
						C177,206.4,178.2,207.1,180.7,208.5z"/>
					<path class="st1" d="M189.8,203.3c-2.5,1.4-3.7,2.1-6.1,3.5c-2.5-1.4-3.7-2.1-6.2-3.5c2.5-1.4,3.7-2.1,6.1-3.5
						C186,201.2,187.3,201.9,189.8,203.3z"/>
					<path class="st1" d="M244.1,172.1c-17.1,9.8-34.3,19.7-51.4,29.5c-2.5-1.4-3.7-2.1-6.2-3.5c17.1-9.8,34.3-19.7,51.4-29.5
						C240.4,170,241.6,170.7,244.1,172.1z"/>
					<path class="st1" d="M253.2,166.9c-2.5,1.4-3.7,2.1-6.1,3.5c-2.5-1.4-3.7-2.1-6.2-3.5c2.5-1.4,3.7-2.1,6.1-3.5
						C249.4,164.8,250.7,165.5,253.2,166.9z"/>
					<path class="st1" d="M262.2,161.7c-2.5,1.4-3.7,2.1-6.1,3.5c-2.5-1.4-3.7-2.1-6.2-3.5c2.5-1.4,3.7-2.1,6.1-3.5
						C258.5,159.6,259.7,160.3,262.2,161.7z"/>
					<path class="st1" d="M271.3,156.5c-2.5,1.4-3.7,2.1-6.1,3.5c-2.5-1.4-3.7-2.1-6.2-3.5c2.5-1.4,3.7-2.1,6.1-3.5
						C267.6,154.4,268.8,155.1,271.3,156.5z"/>
				</g>
			</g>
			<polygon class="st1" points="202.1,204.2 244.4,179.8 268.5,194.7 226.3,219.1 			"/>
		</g>
		<g>
			<g>
				<polygon class="st20" points="202.4,84.2 209.7,80 209.7,80.3 202.5,84.4 				"/>
			</g>
			<g>
				<polygon class="st20" points="196.8,87.7 196.6,87.5 199.5,85.9 199.4,86.3 				"/>
			</g>
			<g>
				<polygon class="st20" points="205.8,90.4 209.8,88.1 209.8,88.4 205.9,90.6 				"/>
			</g>
			<g class="st15">
				<g>
					<polygon class="st29" points="205.9,90.6 209.8,97.9 205,100.7 191.5,108.5 198.1,89.8 199.4,86.3 199.5,85.9 201,81.6 
						202.4,84.2 202.5,84.4 205.8,90.4 					"/>
				</g>
				<g>
					<polygon class="st11" points="196.8,87.7 198.1,89.8 191.5,108.5 186.6,106.6 188.9,100.4 189.1,100.1 192.9,90 193.1,89.6 
						194.9,84.8 196.6,87.5 					"/>
				</g>
				<g>
					<polygon class="st29" points="181.5,104.7 186.6,106.6 191.5,108.5 184.3,112.6 171.6,119.9 179.9,107.1 181.3,104.8 
						181.4,104.7 					"/>
				</g>
				<g>
					<polygon class="st20" points="179.1,106.1 178.9,105.9 189.1,100.1 188.9,100.4 181.5,104.7 181.4,104.7 181.3,104.8 					"/>
				</g>
				<g>
					<polygon class="st11" points="179.1,106.1 179.9,107.1 171.6,119.9 169.7,116.2 172.3,110 172.4,109.7 175.7,101.8 
						178.9,105.9 					"/>
				</g>
				<g>
					<polygon class="st20" points="167.9,112.6 167.7,112.4 172.4,109.7 172.3,110 					"/>
				</g>
				<g>
					<polygon class="st20" points="164.6,106.3 164.5,106.1 193.1,89.6 192.9,90 					"/>
				</g>
				<g>
					<polygon class="st29" points="167.9,112.6 169.7,116.2 171.6,119.9 167,122.6 155.1,129.5 160.6,111.8 161.8,108 161.9,107.6 
						163.2,103.4 164.5,106.1 164.6,106.3 167.7,112.4 					"/>
				</g>
				<g>
					<polygon class="st20" points="159.2,109.4 159.1,109.2 161.9,107.6 161.8,108 					"/>
				</g>
				<g>
					<polygon class="st20" points="155.2,102.8 209.7,71.3 209.7,71.6 155.3,103 					"/>
				</g>
				<g>
					<polygon class="st20" points="209.7,63.1 209.7,63.4 118,116.4 117.6,116.6 117.6,116.3 118,116.1 					"/>
				</g>
			</g>
			<g>
				<polygon class="st20" points="117.7,124.4 118,124.2 153.1,104 152.9,104.4 118,124.5 117.7,124.7 				"/>
			</g>
			<g>
				<polygon class="st20" points="145.6,117.3 145.4,117.1 148.7,115.2 148.5,115.6 				"/>
			</g>
			<g>
				<polygon class="st20" points="117.7,141.2 118.1,141 124.6,137.3 124.4,137.7 118.1,141.3 117.7,141.5 				"/>
			</g>
			<g class="st15">
				<g>
					<polygon class="st29" points="145.6,117.3 147.1,119.3 155.1,129.5 139.6,138.4 127.1,145.6 132.5,132.4 136.5,122.5 
						136.7,122.1 141,111.5 145.4,117.1 					"/>
				</g>
				<g>
					<polygon class="st11" points="128.6,129.1 132.5,132.4 127.1,145.6 118.1,150.8 124.4,137.7 124.6,137.3 					"/>
				</g>
				<g>
					<polygon class="st20" points="117.7,133.1 118,132.9 136.7,122.1 136.5,122.5 118,133.2 117.7,133.4 					"/>
				</g>
			</g>
			<g>
				<polygon class="st11" points="159.2,109.4 160.6,111.8 155.1,129.5 147.1,119.3 148.5,115.6 148.7,115.2 152.9,104.4 153.1,104 
					154.2,101.1 155.2,102.8 155.3,103 159.1,109.2 				"/>
			</g>
			<g>
				<polygon class="st20" points="209.7,53.9 209.7,54.2 117.6,107.4 117.6,107.1 				"/>
			</g>
			<g>
				<polygon class="st20" points="118,107.3 118,116.1 117.6,116.3 117.6,116.6 118,116.4 118,124.2 117.7,124.4 117.7,124.7 
					118,124.5 118,132.9 117.7,133.1 117.7,133.4 118,133.2 118.1,141 117.7,141.2 117.7,141.5 118.1,141.3 118.1,150.8 210.2,97.7 
					210.2,98.1 117.7,151.5 117.6,107.5 				"/>
			</g>
		</g>
		<path class="st30" d="M219.3,16.9L105.6,82c-2.5,1.4-4,4-4,6.9l-0.2,102.3l3.7-2.1c22.1-32.7,105.4-155.8,116.3-172.7
			C220.8,16.4,220,16.5,219.3,16.9z"/>
	</g>
</g>
<g>
	<path class="st4" d="M392.6,117.8c-0.6,0.6-27.4,17.4-27.4,17.4s-34.5-20.1-33.3-19.7C333.2,115.8,392.6,117.8,392.6,117.8z"/>
	<polygon class="st5" points="392.6,117.8 360.3,99.1 332,115.5 360.4,131.9 368.4,131.8 	"/>
	<polygon class="st6" points="364.3,127.2 368.4,131.8 360.4,131.9 	"/>
</g>
<g>
	<path class="st4" d="M134.6,308.8c-0.6,0.6-27.4,17.4-27.4,17.4S72.8,306.1,74,306.5C75.2,306.8,134.6,308.8,134.6,308.8z"/>
	<polygon class="st5" points="134.6,308.8 102.3,290.1 74,306.5 102.4,322.9 110.4,322.8 	"/>
	<polygon class="st6" points="106.3,318.2 110.4,322.8 102.4,322.9 	"/>
</g>
</svg>
