<?xml version="1.0" encoding="utf-8"?>
<!-- Generator: Adobe Illustrator 19.0.0, SVG Export Plug-In . SVG Version: 6.00 Build 0)  -->
<svg version="1.1" id="Layer_1" xmlns="http://www.w3.org/2000/svg" xmlns:xlink="http://www.w3.org/1999/xlink" x="0px" y="0px"
	 viewBox="0 0 518 427" style="enable-background:new 0 0 518 427;" xml:space="preserve">
<style type="text/css">
	.st0{fill:#2C3B94;}
	.st1{fill:none;stroke:#151634;stroke-width:3;stroke-linecap:round;stroke-linejoin:round;stroke-miterlimit:10;}
	.st2{fill:#FFFFFF;stroke:#151634;stroke-width:3;stroke-linecap:round;stroke-linejoin:round;stroke-miterlimit:10;}
	.st3{fill:#151634;}
	.st4{font-family:'OpenSans-Light';}
	.st5{font-size:28.5556px;}
	.st6{fill:#2C3B94;stroke:#151634;stroke-width:3;stroke-linecap:round;stroke-linejoin:round;stroke-miterlimit:10;}
</style>
<g id="XMLID_41_">
	<path id="XMLID_11_" class="st0" d="M236.1,285.4l-52.8,27.2c-5.9,3-8.2,10.3-5.2,16.2l0.7,1.3l4.3,8.4l29.4,57.1l4.3,8.4l0.7,1.3
		c3,5.9,10.3,8.2,16.2,5.2l52.8-27.2c5.9-3,8.2-10.3,5.2-16.2l-0.7-1.3l-4.3-8.4l-29.4-57.1l-4.3-8.4l-0.7-1.3
		C249.3,284.7,242,282.4,236.1,285.4z"/>
	<path id="XMLID_9_" class="st1" d="M231.8,277.1L179,304.2c-5.9,3-8.2,10.3-5.2,16.2l43.7,84.8c3,5.9,10.3,8.2,16.2,5.2l52.8-27.2
		c5.9-3,8.2-10.3,5.2-16.2L248,282.3C245,276.3,237.7,274,231.8,277.1z"/>
	
		<rect id="XMLID_10_" x="191" y="307" transform="matrix(0.8891 -0.4578 0.4578 0.8891 -131.5463 144.6609)" class="st2" width="83.5" height="73.6"/>
	<circle id="XMLID_12_" class="st2" cx="253.4" cy="386.5" r="5"/>
	<circle id="XMLID_13_" class="st3" cx="230.2" cy="289.7" r="3"/>
	<path id="XMLID_15_" class="st3" d="M221.7,298.3L200,309.4c-1.8,0.9-4,0.2-4.9-1.6l0,0c-0.9-1.8-0.2-4,1.6-4.9l21.7-11.2
		c1.8-0.9,4-0.2,4.9,1.6v0C224.2,295.1,223.5,297.4,221.7,298.3z"/>
	<g id="XMLID_18_">
		<text id="XMLID_25_" transform="matrix(0.8891 -0.4578 0.4578 0.8891 219.5731 360.1263)" class="st0 st4 st5">A+</text>
	</g>
	
		<rect id="XMLID_26_" x="256.2" y="292.9" transform="matrix(0.8891 -0.4578 0.4578 0.8891 -107.5201 151.3397)" class="st6" width="4.7" height="9.2"/>
	
		<rect id="XMLID_27_" x="262.9" y="306.1" transform="matrix(0.8891 -0.4578 0.4578 0.8891 -112.7729 155.884)" class="st6" width="4.7" height="9.2"/>
	
		<rect id="XMLID_28_" x="200.8" y="378.1" transform="matrix(0.8891 -0.4578 0.4578 0.8891 -152.6318 135.438)" class="st6" width="4.7" height="9.2"/>
</g>
<g id="XMLID_42_">
	<path id="XMLID_44_" class="st2" d="M405.1,297.1L182.3,210c-6.9-2.7-10.4-10.5-7.7-17.5L229,53.4l247.9,96.9l-54.4,139.1
		C419.9,296.3,412,299.8,405.1,297.1z"/>
	<polygon id="XMLID_45_" class="st6" points="476.9,150.3 229,53.4 227.2,24.4 497.9,130.2 	"/>
	<path id="XMLID_47_" class="st2" d="M489.7,111.4L246,16.2c-7.5-2.9-15.9,0.8-18.8,8.2v0l270.7,105.8v0
		C500.8,122.8,497.1,114.3,489.7,111.4z"/>
	<g id="XMLID_49_">
		<polygon id="XMLID_51_" class="st2" points="238,46.9 237.5,38.5 480.8,133.6 474.8,139.4 		"/>
		<polygon id="XMLID_50_" class="st2" points="238,46.9 237.5,38.5 480.8,133.6 474.8,139.4 		"/>
	</g>
	
		<rect id="XMLID_52_" x="269.9" y="211.1" transform="matrix(0.9314 0.3639 -0.3639 0.9314 103.5121 -95.0641)" class="st6" width="68.3" height="32.1"/>
	<line id="XMLID_53_" class="st6" x1="270" y1="220.3" x2="290.8" y2="228.5"/>
	<line id="XMLID_54_" class="st6" x1="312.8" y1="237.1" x2="333.6" y2="245.2"/>
	
		<rect id="XMLID_55_" x="212.3" y="151.5" transform="matrix(0.9314 0.3639 -0.3639 0.9314 72.6013 -68.8438)" class="st6" width="13.4" height="13.4"/>
	
		<rect id="XMLID_56_" x="233.5" y="159.8" transform="matrix(0.9314 0.3639 -0.3639 0.9314 77.0687 -75.9896)" class="st6" width="13.4" height="13.4"/>
	<polygon id="XMLID_58_" class="st6" points="342.4,199.2 257.6,166.1 252.7,178.6 337.5,211.7 350,216.6 354.8,204.1 	"/>
	
		<rect id="XMLID_62_" x="360.7" y="209.5" transform="matrix(0.9314 0.3639 -0.3639 0.9314 103.8732 -118.8646)" class="st6" width="13.4" height="13.4"/>
	
		<rect id="XMLID_63_" x="381.9" y="217.8" transform="matrix(0.9314 0.3639 -0.3639 0.9314 108.3407 -126.0104)" class="st6" width="13.4" height="13.4"/>
	<polygon id="XMLID_61_" class="st6" points="243.8,138.7 222.7,130.4 217.8,142.9 239,151.2 251.4,156.1 256.3,143.6 	"/>
	
		<rect id="XMLID_72_" x="262.1" y="149" transform="matrix(0.9314 0.3639 -0.3639 0.9314 75.0909 -87.1649)" class="st6" width="13.4" height="13.4"/>
	
		<rect id="XMLID_71_" x="283.3" y="157.3" transform="matrix(0.9314 0.3639 -0.3639 0.9314 79.5583 -94.3107)" class="st6" width="13.4" height="13.4"/>
	
		<rect id="XMLID_70_" x="304.5" y="165.5" transform="matrix(0.9314 0.3639 -0.3639 0.9314 84.0257 -101.4565)" class="st6" width="13.4" height="13.4"/>
	
		<rect id="XMLID_67_" x="368.1" y="190.4" transform="matrix(0.9314 0.3639 -0.3639 0.9314 97.428 -122.894)" class="st6" width="13.4" height="13.4"/>
	
		<rect id="XMLID_66_" x="389.3" y="198.7" transform="matrix(0.9314 0.3639 -0.3639 0.9314 101.8954 -130.0398)" class="st6" width="13.4" height="13.4"/>
	<polygon id="XMLID_57_" class="st6" points="413.4,205 408.5,217.4 401.1,236.6 413.5,241.4 421,222.3 425.9,209.8 	"/>
	
		<rect id="XMLID_84_" x="227.2" y="113.3" transform="matrix(0.9314 0.3639 -0.3639 0.9314 59.7108 -76.9027)" class="st6" width="13.4" height="13.4"/>
	
		<rect id="XMLID_83_" x="248.4" y="121.6" transform="matrix(0.9314 0.3639 -0.3639 0.9314 64.1782 -84.0485)" class="st6" width="13.4" height="13.4"/>
	
		<rect id="XMLID_82_" x="269.6" y="129.9" transform="matrix(0.9314 0.3639 -0.3639 0.9314 68.6456 -91.1943)" class="st6" width="13.4" height="13.4"/>
	
		<rect id="XMLID_81_" x="290.8" y="138.1" transform="matrix(0.9314 0.3639 -0.3639 0.9314 73.1131 -98.3401)" class="st6" width="13.4" height="13.4"/>
	
		<rect id="XMLID_80_" x="312" y="146.4" transform="matrix(0.9314 0.3639 -0.3639 0.9314 77.5805 -105.486)" class="st6" width="13.4" height="13.4"/>
	
		<rect id="XMLID_79_" x="333.2" y="154.7" transform="matrix(0.9314 0.3639 -0.3639 0.9314 82.0479 -112.6318)" class="st6" width="13.4" height="13.4"/>
	<polygon id="XMLID_59_" class="st6" points="357.3,161 349.8,180.1 341.1,176.7 328.6,171.9 323.8,184.3 336.2,189.2 345,192.6 
		357.4,197.5 362.3,185 369.8,165.9 	"/>
	
		<rect id="XMLID_77_" x="375.6" y="171.3" transform="matrix(0.9314 0.3639 -0.3639 0.9314 90.9827 -126.9235)" class="st6" width="13.4" height="13.4"/>
	
		<rect id="XMLID_76_" x="396.8" y="179.6" transform="matrix(0.9314 0.3639 -0.3639 0.9314 95.4502 -134.0693)" class="st6" width="13.4" height="13.4"/>
	
		<rect id="XMLID_75_" x="418" y="187.8" transform="matrix(0.9314 0.3639 -0.3639 0.9314 99.9176 -141.2151)" class="st6" width="13.4" height="13.4"/>
	<polygon id="XMLID_60_" class="st6" points="258.8,100.5 237.6,92.2 232.7,104.7 253.9,113 266.4,117.8 271.3,105.4 	"/>
	
		<rect id="XMLID_92_" x="277.1" y="110.7" transform="matrix(0.9314 0.3639 -0.3639 0.9314 62.2004 -95.2238)" class="st6" width="13.4" height="13.4"/>
	
		<rect id="XMLID_91_" x="298.3" y="119" transform="matrix(0.9314 0.3639 -0.3639 0.9314 66.6678 -102.3696)" class="st6" width="13.4" height="13.4"/>
	
		<rect id="XMLID_90_" x="319.5" y="127.3" transform="matrix(0.9314 0.3639 -0.3639 0.9314 71.1352 -109.5154)" class="st6" width="13.4" height="13.4"/>
	
		<rect id="XMLID_89_" x="340.7" y="135.6" transform="matrix(0.9314 0.3639 -0.3639 0.9314 75.6026 -116.6612)" class="st6" width="13.4" height="13.4"/>
	
		<rect id="XMLID_88_" x="361.9" y="143.9" transform="matrix(0.9314 0.3639 -0.3639 0.9314 80.0701 -123.8071)" class="st6" width="13.4" height="13.4"/>
	
		<rect id="XMLID_87_" x="383.1" y="152.2" transform="matrix(0.9314 0.3639 -0.3639 0.9314 84.5375 -130.9529)" class="st6" width="13.4" height="13.4"/>
	
		<rect id="XMLID_86_" x="404.3" y="160.4" transform="matrix(0.9314 0.3639 -0.3639 0.9314 89.0049 -138.0987)" class="st6" width="13.4" height="13.4"/>
	
		<rect id="XMLID_85_" x="425.5" y="168.7" transform="matrix(0.9314 0.3639 -0.3639 0.9314 93.4723 -145.2445)" class="st6" width="13.4" height="13.4"/>
	
		<rect id="XMLID_104_" x="242.2" y="75.1" transform="matrix(0.9314 0.3639 -0.3639 0.9314 46.8203 -84.9616)" class="st6" width="13.4" height="13.4"/>
	
		<rect id="XMLID_103_" x="263.4" y="83.3" transform="matrix(0.9314 0.3639 -0.3639 0.9314 51.2877 -92.1074)" class="st6" width="13.4" height="13.4"/>
	
		<rect id="XMLID_102_" x="284.6" y="91.6" transform="matrix(0.9314 0.3639 -0.3639 0.9314 55.7551 -99.2532)" class="st6" width="13.4" height="13.4"/>
	
		<rect id="XMLID_101_" x="305.8" y="99.9" transform="matrix(0.9314 0.3639 -0.3639 0.9314 60.2225 -106.399)" class="st6" width="13.4" height="13.4"/>
	
		<rect id="XMLID_100_" x="326.9" y="108.2" transform="matrix(0.9314 0.3639 -0.3639 0.9314 64.69 -113.5449)" class="st6" width="13.4" height="13.4"/>
	
		<rect id="XMLID_99_" x="348.1" y="116.5" transform="matrix(0.9314 0.3639 -0.3639 0.9314 69.1574 -120.6907)" class="st6" width="13.4" height="13.4"/>
	
		<rect id="XMLID_98_" x="369.3" y="124.8" transform="matrix(0.9314 0.3639 -0.3639 0.9314 73.6248 -127.8365)" class="st6" width="13.4" height="13.4"/>
	
		<rect id="XMLID_97_" x="390.5" y="133" transform="matrix(0.9314 0.3639 -0.3639 0.9314 78.0922 -134.9823)" class="st6" width="13.4" height="13.4"/>
	
		<rect id="XMLID_96_" x="411.7" y="141.3" transform="matrix(0.9314 0.3639 -0.3639 0.9314 82.5597 -142.1282)" class="st6" width="13.4" height="13.4"/>
	
		<rect id="XMLID_95_" x="432.9" y="149.6" transform="matrix(0.9314 0.3639 -0.3639 0.9314 87.0271 -149.274)" class="st6" width="13.4" height="13.4"/>
</g>
<g id="XMLID_117_">
	
		<rect id="XMLID_119_" x="33.4" y="225.9" transform="matrix(0.9746 0.2239 -0.2239 0.9746 68.169 -11.3041)" class="st2" width="101" height="138.2"/>
	<g id="XMLID_120_">
		
			<rect id="XMLID_121_" x="63.4" y="246.4" transform="matrix(0.9746 0.2239 -0.2239 0.9746 59.4538 -10.0714)" class="st2" width="21.5" height="21.5"/>
		<g id="XMLID_122_">
			<line id="XMLID_123_" class="st1" x1="57.5" y1="282.5" x2="113.3" y2="295.3"/>
			<line id="XMLID_124_" class="st1" x1="54.6" y1="295.1" x2="110.5" y2="307.9"/>
			<line id="XMLID_125_" class="st1" x1="51.7" y1="307.6" x2="107.6" y2="320.5"/>
			<line id="XMLID_126_" class="st1" x1="48.8" y1="320.2" x2="104.7" y2="333.1"/>
			<line id="XMLID_127_" class="st1" x1="45.9" y1="332.8" x2="101.8" y2="345.6"/>
		</g>
	</g>
</g>
<g id="XMLID_157_">
	
		<rect id="XMLID_151_" x="337.6" y="318.6" transform="matrix(0.9436 0.3311 -0.3311 0.9436 137.9689 -93.9381)" class="st6" width="14.1" height="78.6"/>
	<path id="XMLID_152_" class="st6" d="M363,305.7L363,305.7c-2.2-0.8-4.7,0.4-5.5,2.6l-3.9,11.1l8.1,2.8l3.9-11.1
		C366.4,309,365.2,306.5,363,305.7z"/>
	<path id="XMLID_155_" class="st6" d="M325,392.7l0.9,11c0.2,2.4,3.1,3.4,4.8,1.7l7.6-8L325,392.7z"/>
	
		<rect id="XMLID_154_" x="327.7" y="376.8" transform="matrix(0.9436 0.3311 -0.3311 0.9436 146.7659 -89.0605)" class="st2" width="14.1" height="18.7"/>
	<polyline id="XMLID_156_" class="st1" points="348.6,325.5 368.5,332.5 357.1,365 	"/>
</g>
</svg>
