<?xml version="1.0" encoding="utf-8"?>
<!-- Generator: Adobe Illustrator 19.0.0, SVG Export Plug-In . SVG Version: 6.00 Build 0)  -->
<svg version="1.1" id="Layer_1" xmlns="http://www.w3.org/2000/svg" xmlns:xlink="http://www.w3.org/1999/xlink" x="0px" y="0px"
	 viewBox="0 0 436 345" style="enable-background:new 0 0 436 345;" xml:space="preserve">
<style type="text/css">
	.st0{fill:#2C3B94;stroke:#151634;stroke-width:3;stroke-linecap:round;stroke-linejoin:round;stroke-miterlimit:10;}
	.st1{fill:none;stroke:#151634;stroke-width:3;stroke-linecap:round;stroke-linejoin:round;stroke-miterlimit:10;}
	.st2{fill:#FFFFFF;}
	.st3{fill:#FFFFFF;stroke:#151634;stroke-width:3;stroke-linecap:round;stroke-linejoin:round;stroke-miterlimit:10;}
	.st4{fill:#2C3B94;}
	.st5{fill:#FEC13B;stroke:#151634;stroke-width:3;stroke-linecap:round;stroke-linejoin:round;stroke-miterlimit:10;}
</style>
<g id="XMLID_8_">
	<path id="XMLID_29_" class="st0" d="M63.3,293.6l-8-1.4c-7.4-1.3-12.3-8.3-11-15.6l0.9-5.5c0.6-3.4,3.1-6.2,6.4-7.2l3.4-1
		c6-1.7,12.4-1.2,18,1.4l5.3,2.5c4.4,2.1,6.4,7.3,4.5,11.8l-2.5,5.8C77.4,291.1,70.4,294.9,63.3,293.6z"/>
	<line id="XMLID_30_" class="st1" x1="45.2" y1="271.2" x2="37.7" y2="269.9"/>
	<path id="XMLID_33_" class="st0" d="M111,301.8l8,1.4c7.4,1.3,14.4-3.7,15.6-11l0.9-5.5c0.6-3.4-0.8-6.9-3.7-8.9l-2.9-2.1
		c-5.1-3.6-11.2-5.3-17.4-4.7l-5.8,0.6c-4.9,0.5-8.5,4.8-8.2,9.6l0.4,6.3C98.6,294.7,103.9,300.6,111,301.8z"/>
	<line id="XMLID_32_" class="st1" x1="135.6" y1="286.7" x2="143.2" y2="288"/>
	<path id="XMLID_31_" class="st1" d="M83.2,272.9c0,0,9.1-6,15.2,2.6"/>
	<g id="XMLID_40_">
		<path id="XMLID_36_" class="st2" d="M99.3,281.1l0.1,1.1c10.6,0.3,20.4-2.1,26.8-6.5c-2.5-1.4-5.2-2.4-8-2.9
			c-2.1-0.4-4.3-0.4-6.4-0.2l-5.8,0.6C102,273.6,99,277.1,99.3,281.1z"/>
		<path id="XMLID_48_" class="st2" d="M80.8,279.1l0.5-1.1c1.6-3.7,0-8-3.7-9.7c0,0,0,0,0,0l-5.3-2.5c-4.8-2.2-10.1-2.8-15.2-1.7
			C61.9,270.5,70.5,275.9,80.8,279.1z"/>
	</g>
</g>
<g id="XMLID_34_">
	<circle id="XMLID_38_" class="st3" cx="192.5" cy="245.1" r="46.3"/>
	<path id="XMLID_43_" class="st3" d="M242,240.3h-16.4c-2.3-16.2-16.3-28.7-33.1-28.7c-18.5,0-33.5,15-33.5,33.5s15,33.5,33.5,33.5
		c16.9,0,30.8-12.5,33.1-28.7H242c2.7,0,4.8-2.2,4.8-4.8S244.6,240.3,242,240.3z"/>
	<circle id="XMLID_39_" class="st0" cx="192.5" cy="245.1" r="26.5"/>
	<path id="XMLID_46_" class="st2" d="M209.4,226.7c-4.5-4.2-10.5-6.6-16.9-6.6c-13.8,0-24.9,11.2-24.9,24.9c0,6.4,2.4,12.4,6.6,16.9
		c-0.8-2.7-1.3-5.5-1.3-8.4c0-15.5,12.6-28.2,28.2-28.2C203.9,225.5,206.7,225.9,209.4,226.7z"/>
</g>
<g id="XMLID_111_">
	<path id="XMLID_118_" class="st4" d="M265.3,54.7l-4.6,3.1l78.4-26.3c-1-0.7-2.2-0.9-3.4-0.5L265.3,54.7z"/>
	
		<rect id="XMLID_108_" x="264.7" y="42.3" transform="matrix(0.9481 -0.3179 0.3179 0.9481 0.2264 97.2279)" class="st1" width="66.7" height="11.1"/>
	<path id="XMLID_109_" class="st0" d="M335.2,29.6l-7.4,2.5l3.5,10.6l7.4-2.5c2.9-1,4.5-4.1,3.5-7.1l0,0
		C341.3,30.2,338.1,28.6,335.2,29.6z"/>
	<polygon id="XMLID_110_" class="st1" points="247.8,64.8 268.2,63.8 264.6,53.2 	"/>
	<line id="XMLID_112_" class="st1" x1="257.4" y1="58.2" x2="259.4" y2="64.2"/>
</g>
<g id="XMLID_65_">
	
		<rect id="XMLID_68_" x="214.6" y="76.1" transform="matrix(0.9481 -0.3179 0.3179 0.9481 -22.9939 99.6741)" class="st3" width="158.6" height="88.3"/>
	
		<rect id="XMLID_78_" x="263.9" y="51.6" transform="matrix(0.3179 0.9481 -0.9481 0.3179 322.7246 -200.5904)" class="st4" width="73.7" height="144.7"/>
	<line id="XMLID_69_" class="st1" x1="229.8" y1="95.2" x2="257.9" y2="178.9"/>
	<line id="XMLID_74_" class="st1" x1="342.2" y1="57.5" x2="370.3" y2="141.2"/>
	<g id="XMLID_73_">
		<line id="XMLID_93_" class="st1" x1="232.8" y1="104" x2="345.1" y2="66.3"/>
		<line id="XMLID_94_" class="st1" x1="255" y1="170.2" x2="367.3" y2="132.5"/>
	</g>
	<g id="XMLID_105_">
		<line id="XMLID_106_" class="st1" x1="268.4" y1="150.3" x2="250.3" y2="156.4"/>
		<line id="XMLID_107_" class="st1" x1="264.1" y1="137.4" x2="246" y2="143.5"/>
		<line id="XMLID_113_" class="st1" x1="259.8" y1="124.6" x2="241.7" y2="130.6"/>
		<line id="XMLID_114_" class="st1" x1="255.4" y1="111.7" x2="237.4" y2="117.7"/>
	</g>
	<circle id="XMLID_115_" class="st1" cx="231.5" cy="141.2" r="6.8"/>
	
		<rect id="XMLID_116_" x="368.9" y="84.9" transform="matrix(0.9481 -0.3179 0.3179 0.9481 -10.4615 123.4383)" class="st0" width="8.2" height="17.8"/>
</g>
<g id="XMLID_117_">
	
		<rect id="XMLID_119_" x="286.5" y="199.7" transform="matrix(0.9746 0.2239 -0.2239 0.9746 67.2207 -67.7476)" class="st3" width="91.8" height="125.7"/>
	<g id="XMLID_120_">
		
			<rect id="XMLID_121_" x="313.7" y="218.4" transform="matrix(0.9746 0.2239 -0.2239 0.9746 59.2977 -66.627)" class="st3" width="19.5" height="19.5"/>
		<g id="XMLID_122_">
			<line id="XMLID_123_" class="st1" x1="308.4" y1="251.2" x2="359.1" y2="262.9"/>
			<line id="XMLID_124_" class="st1" x1="305.7" y1="262.7" x2="356.5" y2="274.3"/>
			<line id="XMLID_125_" class="st1" x1="303.1" y1="274.1" x2="353.9" y2="285.8"/>
			<line id="XMLID_126_" class="st1" x1="300.5" y1="285.5" x2="351.2" y2="297.2"/>
			<line id="XMLID_127_" class="st1" x1="297.8" y1="297" x2="348.6" y2="308.6"/>
		</g>
	</g>
</g>
<g id="XMLID_161_">
	<path id="XMLID_158_" class="st3" d="M97.9,222.9l-55.5,18c-5,1.6-10.3-1.1-12-6.1L7.4,163.8c-1.6-5,1.1-10.3,6.1-12l55.5-18
		c5-1.6,10.3,1.1,12,6.1l22.9,70.9C105.6,215.9,102.8,221.3,97.9,222.9z"/>
	
		<rect id="XMLID_159_" x="18.2" y="153.3" transform="matrix(0.9514 -0.3078 0.3078 0.9514 -47.2199 22.2773)" class="st3" width="57.6" height="15.1"/>
	
		<rect id="XMLID_166_" x="46" y="137.2" transform="matrix(0.3078 0.9514 -0.9514 0.3078 188.5073 64.3318)" class="st4" width="8" height="49"/>
	
		<rect id="XMLID_160_" x="24.9" y="182.5" transform="matrix(0.9514 -0.3078 0.3078 0.9514 -55.4296 18.8112)" class="st0" width="13.9" height="5.3"/>
	
		<rect id="XMLID_162_" x="45.7" y="175.7" transform="matrix(0.9514 -0.3078 0.3078 0.9514 -52.3517 24.88)" class="st0" width="13.9" height="5.3"/>
	
		<rect id="XMLID_163_" x="66.5" y="169" transform="matrix(0.9514 -0.3078 0.3078 0.9514 -49.2737 30.9488)" class="st0" width="13.9" height="5.3"/>
	
		<rect id="XMLID_167_" x="30.2" y="197.6" transform="matrix(0.9514 -0.3078 0.3078 0.9514 -60.1476 21.204)" class="st3" width="13.9" height="7.2"/>
	
		<rect id="XMLID_165_" x="50.9" y="190.9" transform="matrix(0.9514 -0.3078 0.3078 0.9514 -57.0697 27.2728)" class="st3" width="13.9" height="7.2"/>
	
		<rect id="XMLID_164_" x="71.7" y="184.2" transform="matrix(0.9514 -0.3078 0.3078 0.9514 -53.9918 33.3416)" class="st0" width="13.9" height="7.2"/>
	
		<rect id="XMLID_170_" x="34.2" y="210" transform="matrix(0.9514 -0.3078 0.3078 0.9514 -63.748 23.0301)" class="st3" width="13.9" height="7.2"/>
	
		<rect id="XMLID_169_" x="54.9" y="203.2" transform="matrix(0.9514 -0.3078 0.3078 0.9514 -60.6701 29.0989)" class="st3" width="13.9" height="7.2"/>
	
		<rect id="XMLID_168_" x="75.7" y="196.5" transform="matrix(0.9514 -0.3078 0.3078 0.9514 -57.5922 35.1676)" class="st0" width="13.9" height="7.2"/>
	
		<rect id="XMLID_173_" x="38.1" y="222.3" transform="matrix(0.9514 -0.3078 0.3078 0.9514 -67.3484 24.8561)" class="st3" width="13.9" height="7.2"/>
	
		<rect id="XMLID_172_" x="58.9" y="215.6" transform="matrix(0.9514 -0.3078 0.3078 0.9514 -64.2705 30.9249)" class="st3" width="13.9" height="7.2"/>
	
		<rect id="XMLID_171_" x="79.7" y="208.8" transform="matrix(0.9514 -0.3078 0.3078 0.9514 -61.1926 36.9937)" class="st0" width="13.9" height="7.2"/>
</g>
<g id="XMLID_4_">
	<polygon id="XMLID_5_" class="st3" points="143.6,120.1 120.9,164.3 153.1,180.9 159.2,168.9 171.3,175 187.8,142.9 	"/>
	<polygon id="XMLID_6_" class="st3" points="153.1,180.9 171.3,175 159.2,168.9 	"/>
	<line id="XMLID_7_" class="st3" x1="139.3" y1="128.5" x2="150.1" y2="134.1"/>
	<line id="XMLID_16_" class="st3" x1="158.9" y1="138.6" x2="183.5" y2="151.2"/>
</g>
<g id="XMLID_17_">
	<circle id="XMLID_19_" class="st3" cx="132.5" cy="64.2" r="31.3"/>
	<path id="XMLID_20_" class="st0" d="M167.6,46.8L221,20.4c2.4-1.2,5.3-1.2,7.8,0l0,0c4.2,2,6.1,7,4.4,11.3l0,0
		c-1,2.5-3.1,4.4-5.8,5.2l-57.2,16.5L167.6,46.8z"/>
	<path id="XMLID_22_" class="st3" d="M161.7,52.9c0.7,1.8,1.2,3.7,1.6,5.5l7.7-3l-4.1-10.7l-7.7,3C160.1,49.4,161,51.1,161.7,52.9z"
		/>
	<circle id="XMLID_21_" class="st3" cx="132.5" cy="64.2" r="23.2"/>
	<path id="XMLID_174_" class="st4" d="M143.6,76.7c4-1.6,7.4-4.2,9.9-7.8c1-4.2,0.6-8.5-0.9-12.5c-4.3-11-16.7-16.5-27.8-12.3
		c-4,1.6-7.4,4.2-9.9,7.8c-1,4.2-0.6,8.5,0.9,12.5C120.1,75.5,132.5,81,143.6,76.7z"/>
	<line id="XMLID_23_" class="st5" x1="227.4" y1="36.9" x2="221" y2="20.4"/>
</g>
<g id="XMLID_35_">
	<path id="XMLID_37_" class="st0" d="M65.5,55.5l-26.8-7c-4.8-1.2-9.7,1.6-11,6.5l-2.4,9.1l44.3,11.5l2.4-9.1
		C73.2,61.7,70.3,56.8,65.5,55.5z"/>
	<path id="XMLID_141_" class="st3" d="M66,33.1c0.6-0.9,1.1-1.9,1.4-3c1.3-4.9-1.7-10-6.6-11.3s-10,1.7-11.3,6.6
		c-0.1,0.3-0.1,0.5-0.2,0.8c0,0.1,0,0.1,0,0.2c-1.1,7.3,3.7,21-2,24.3l4.7,1.2l0.1,0l4.7,1.2C53.8,48.2,62.4,39.7,66,33.1z"/>
	
		<rect id="XMLID_175_" x="26.6" y="69.8" transform="matrix(0.968 0.2509 -0.2509 0.968 19.6579 -9.4285)" class="st3" width="40.5" height="5.1"/>
	<line id="XMLID_179_" class="st1" x1="26.7" y1="58.7" x2="42.1" y2="62.7"/>
</g>
</svg>
