<?xml version="1.0" encoding="utf-8"?>
<!-- Generator: Adobe Illustrator 19.0.0, SVG Export Plug-In . SVG Version: 6.00 Build 0)  -->
<svg version="1.1" xmlns="http://www.w3.org/2000/svg" xmlns:xlink="http://www.w3.org/1999/xlink" x="0px" y="0px"
	 viewBox="0 0 320 251.5" style="enable-background:new 0 0 320 251.5;" xml:space="preserve">
<style type="text/css">
	.st0{fill:#4E4D5D;}
	.st1{fill:#FFFFFF;}
	.st2{fill:#FEEDE5;}
	.st3{opacity:0.3;fill:#DBDDEA;}
	.st4{fill:#B2B7DD;}
	.st5{opacity:0.2;fill:#FBFCFC;}
	.st6{fill:#F3F3F3;}
	.st7{fill:#2C3895;}
	.st8{fill:#B7C4CE;}
	.st9{fill:#DB3726;}
	.st10{fill:#515FAB;}
	.st11{fill:#151634;}
	.st12{fill:#FCD4C7;}
	.st13{fill:#E2EBF3;}
	.st14{fill:#21233C;}
	.st15{fill:#EF4623;}
	.st16{fill:#D6DDEA;}
</style>
<g id="Layer_1">
	<g id="XMLID_282_">
		<rect id="XMLID_74_" x="15.5" y="20.2" class="st0" width="286.5" height="172.4"/>
		<rect id="XMLID_73_" x="18" y="22.1" class="st1" width="281.5" height="167.7"/>
		<rect id="XMLID_72_" x="181.1" y="63.2" class="st2" width="2.1" height="107.4"/>
		<rect id="XMLID_71_" x="40.7" y="123.6" class="st2" width="2.1" height="47"/>
		<rect id="XMLID_70_" x="87.5" y="134.4" class="st2" width="2.1" height="36.2"/>
		<rect id="XMLID_69_" x="134.3" y="94.9" class="st2" width="2.1" height="75.7"/>
		<rect id="XMLID_68_" x="227.9" y="84" class="st2" width="2.1" height="86.6"/>
		<rect id="XMLID_67_" x="274.7" y="112.2" class="st2" width="2.1" height="58.4"/>
		<path id="XMLID_66_" class="st3" d="M276.9,144.7c-12.2,0-18.3-17-24.2-33.5c-5.7-16.1-11.7-32.7-23.1-32.7
			c-11.5,0-17.4,16.6-23.1,32.7c-5.9,16.5-12,33.5-24.2,33.5c-12.2,0-18.3-17-24.2-33.5c-5.7-16.1-11.7-32.7-23.1-32.7
			c-11.5,0-17.4,16.6-23.1,32.7c-5.9,16.5-12,33.5-24.2,33.5c-12.2,0-18.3-17-24.2-33.5c-5.7-16.1-11.7-32.7-23.1-32.7v-1.5
			c12.2,0,18.3,17,24.2,33.5c5.7,16.1,11.7,32.7,23.1,32.7c11.5,0,17.4-16.6,23.1-32.7c5.9-16.5,12-33.5,24.2-33.5
			s18.3,17,24.2,33.5c5.7,16.1,11.7,32.7,23.1,32.7c11.5,0,17.4-16.6,23.1-32.7c5.9-16.5,12-33.5,24.2-33.5s18.3,17,24.2,33.5
			c5.7,16.1,11.7,32.7,23.1,32.7V144.7z"/>
		<ellipse id="XMLID_65_" class="st4" cx="43.8" cy="46.8" rx="3.1" ry="3.9"/>
		<ellipse id="XMLID_64_" class="st4" cx="55.3" cy="46.8" rx="3.1" ry="3.9"/>
		<ellipse id="XMLID_63_" class="st4" cx="66.9" cy="46.8" rx="3.1" ry="3.9"/>
	</g>
	<path id="XMLID_52_" class="st5" d="M211.6,34.8c-5.4-1.5-26.4-7.4-48.6,2.6c-4.7,2.1-26.9,12.1-32.3,32.2
		c-7.2,26.6,22.8,42.5,20,70.6c-2.4,24.2-36.3,23.1-42.2,49.5c-3.1,13.8,1.3,30.9,10.9,39.7c30,27.7,141.8,4.4,161.2-68
		C294.7,108.7,255.3,47.1,211.6,34.8z"/>
	<g id="XMLID_31_">
		<ellipse id="XMLID_29_" class="st6" cx="185.9" cy="230.6" rx="73.8" ry="8.5"/>
		<circle id="XMLID_28_" class="st7" cx="178.6" cy="86.3" r="9"/>
		<circle id="XMLID_27_" class="st7" cx="194" cy="67.6" r="30.4"/>
		<path id="XMLID_25_" class="st8" d="M169.6,232.1c0,0,10.9,2.9,16.5,2.1c5.6-0.8,16.3-0.5,17,0c0.7,0.5,4,2.4,6.1,1.7
			c2.1-0.7,0.4-3-1.1-3.6c-1.5-0.6-15.9-5.9-18-8.5c-2.1-2.6-5.8-1.5-9.7-0.8c-3.9,0.7-11.7-3.2-11.7-3.2S163.2,229.1,169.6,232.1z"
			/>
		<path id="XMLID_24_" class="st9" d="M131.4,202.3c24.2-0.1,43.5,17.8,43.5,17.8c-8.2,2.2-4.2,12.7-4.2,12.7
			c-2.3,0.5-33-4.9-43.9-8.8c-10.9-3.8-12.4-16.3-11.2-22c1.2-5.7,7.9-7,13-8.5c5.1-1.5,25-1.1,30.4,0.3c5.4,1.4,22.8,2.4,27.3,0.1
			c0,0,13.3,3.7,24.4,2.2c11-1.5-16.7,24.8-46.4,24.4"/>
		<path id="XMLID_23_" class="st10" d="M207.7,78.8c0.6,7-15,18.6-20.4,20c-6,1.6-11-4.2-13.4-10.9c-2.4-6.7-4.3-12.5-5.5-16.6
			c-0.8-3-5.4-18.2,16.7-24.9C210.5,38.7,207.1,71.9,207.7,78.8z"/>
		<path id="XMLID_22_" class="st10" d="M193,86.6c0,0,2,10.7-1.9,13.4c-3.9,2.6-8.8,4.8-11.3,6.2c-2.6,1.5-7.3,12-4.3,20.1
			s27.9,20.3,40.4,14c12.5-6.2,17.6-27.6,8.5-33.7c-9.1-6.1-15.8-7.2-16.9-14.4c-1-7.2-2.2-16.8,0.9-21.9"/>
		<path id="XMLID_21_" class="st10" d="M190.1,101.5c-4.1,0.9-10.9,3.2-14.7,8.2c-3.8,5-6.8,15.7-7.4,20.9
			c-0.6,5.1-4.8,20.6-5.7,24.6c-0.9,4.1-0.9,8.3-3.7,10.3c-3.7,2.6-13.2,11.8-19.2,14.2c-4.6,1.9-11.5,2.5-12.8,2.5
			c-1.8,0-2.4,1.5-1.6,3.6c0.8,2.1,1.4,5.5,9.1,4.1c7.7-1.5,16.7-5.6,25.2-8.9c4-1.5,10.1-5.1,11.3-9.7c1.2-4.6,6-25.9,9.6-33.7
			C183.6,129.9,190.1,101.5,190.1,101.5z"/>
		<path id="XMLID_20_" class="st11" d="M218.4,102.5c0,0-11.3,13.8-8.3,26.1c3,12.3,13.9,7.6,13.9,7.6s-3.1,24.8-3.4,32.2
			c-0.3,7.4,3.8,22.9,3.4,26.2c-0.9,6.8-16.4,5.3-30.6,4.2c-14.2-1.1-19.2-1.3-17.1-10.6c2.1-9.2,3.3-8.5,3.7-18.3
			c0.2-7.1,0.5-15-5.4-22.6c-2.8-3.7-2.6-10.3,1.4-22.9c1.9-6.1,4.9-16.5,9.2-22.3c0.3-0.5,2.8-1.2,3.9-1.7c0.5-0.2,2.1-1.2,0.5,1.4
			c-2.6,4.4-4.7,8-5.2,10.9c-0.6,3.3-0.5,6,5.8,7.1c6.4,1,12.4-3.9,15.1-8.9c5.7-10.3,5.3-10.4,6.1-11.3c0.7-0.9,1.1-0.4,2.2,0.2
			C214.7,100.5,218.8,102,218.4,102.5z"/>
		<path id="XMLID_19_" class="st12" d="M130.4,184.2c-2.7-2.2-6.2-4.6-11.6-5.8c-5.5-1.3-9.3-4.1-9.1-2.1c0.2,1.9,2.3,3.5,4.5,4.4
			c2.2,0.8,3.7,2.5,2.3,3.6c-1.4,1.1-3.9,1.7-5.2,0.7c-1.2-1-5.7-4.8-9.7-4s8.1,6.5,9.1,8.3c1,1.7,4,5,8.6,3.9
			c4.6-1,10.6-2.7,12-2.7C132.7,190.5,132.9,186.3,130.4,184.2z"/>
		<path id="XMLID_18_" class="st9" d="M219.5,194c7.1-2.4,26,0.3,27,14.3c1,14,0.4,27.1-25.9,27.7c-26.3,0.5-31.3-8.5-33.1-13.9
			c-0.9-2.8-2.9-6.8,3.3-10C197.2,208.9,204.7,199.2,219.5,194z"/>
		<path id="XMLID_17_" class="st2" d="M190.3,216.5c-2,0,0.7-2.1-0.3-3.8c-1-1.6-2-3.7-10.8-0.7c-8.8,3-10.2,1.6-12.4,0.6
			c-2.2-1.1-11,0.3-12.3,1.6c-1.3,1.3,4.8,2.4,5.8,3.6c1,1.2,19.8,8.3,29.3,9.4C199,228.4,190.3,216.5,190.3,216.5z"/>
		<circle id="XMLID_16_" class="st7" cx="190.2" cy="53.1" r="14.8"/>
		<circle id="XMLID_15_" class="st7" cx="180.2" cy="52.7" r="13.2"/>
		<circle id="XMLID_14_" class="st7" cx="202.9" cy="63.4" r="9.8"/>
		<circle id="XMLID_13_" class="st7" cx="207.3" cy="75.5" r="9"/>
		<path id="XMLID_12_" class="st7" d="M170.7,53.4c-4.8,3.4-6,10-2.6,14.8c3.4,4.8,10,6,14.8,2.6"/>
		<path id="XMLID_11_" class="st7" d="M207.8,76.4c-4.8,3.4-6,10-2.6,14.8c3.4,4.8,10,6,14.8,2.6"/>
		<path id="XMLID_10_" class="st7" d="M209.7,76.7c-3.4,3.8-3.1,9.7,0.7,13.1c3.8,3.4,9.7,3.1,13.1-0.7"/>
		<path id="XMLID_9_" class="st7" d="M210.6,75.4c-2.1,3.7-0.7,8.3,2.9,10.4c3.7,2.1,8.3,0.7,10.4-2.9"/>
		<path id="XMLID_8_" class="st7" d="M170.2,61.6c-3,0.2-5.3,2.8-5.1,5.9s2.8,5.3,5.9,5.1"/>
		<path id="XMLID_7_" class="st12" d="M181.7,194c2.4-1.5,2.9-4.5,0.6-6.2c-1-0.8-6.3-1.8-10.1-3c-3.9-1.1-6.4,2-7.1,3.7
			c-0.8,1.7-10.3,5.6-7.4,8C161.9,200.2,170,201.1,181.7,194z"/>
		<path id="XMLID_6_" class="st10" d="M226.8,109c-4.1,0.9-5.5,2.2-9.4,7.2c-3.8,5-6.8,15.7-7.4,20.9c-0.7,5.1-3.7,16.5-4.6,20.5
			c-0.9,4.1-0.9,8.3-3.7,10.3c-3.7,2.6-14.2,15.9-20.3,18.3c-4.6,1.9-11.5,2.5-12.8,2.5c-1.8,0-2.4,1.5-1.6,3.6
			c0.8,2.1,1.4,5.5,9.1,4.1c7.7-1.5,19.1-7.1,26.6-12.3c4.6-3.2,9.7-5.8,11-10.4s5-21.8,8.5-29.5C234.1,117.5,226.8,109,226.8,109z"
			/>
		<path id="XMLID_4_" class="st13" d="M74.2,159.1c0.4-0.9,1.2-1.5,2.2-1.5H129c0.6,0,1.2,0.3,1.7,0.7l37.7,37.7
			c0.7,0.7,0.9,1.7,0.5,2.6c-0.4,0.9-1.2,1.5-2.2,1.5H114c-0.6,0-1.2-0.3-1.7-0.7l-37.7-37.7C74,161,73.8,160,74.2,159.1z"/>
		<path id="XMLID_3_" class="st14" d="M166.6,200H213c1.3,0,2.4-1.1,2.4-2.4s-1.1-2.4-2.4-2.4h-45.4l-37-37c-0.9-0.9-2.4-0.9-3.4,0
			c-0.9,0.9-0.9,2.4,0,3.4l37.7,37.7C165.4,199.8,166,200,166.6,200z"/>
	</g>
</g>
<g id="Layer_2">
	<path id="XMLID_169_" class="st15" d="M20.4,213.7c-2.4-1.8-14.9-9.6-4.7-12.8c10.2-3.2,0.6-7.3-1.9-9.1c-1.8-1.3-9.1-5.8-2.9-11.5
		c6.2-5.7,4.2-9,0.2-10.9c-4-1.9-1.2-16.3,10.8-10.6c11.9,5.7-2,15,0,21.5c2,6.5,17.2,7.1,11.6,14c-5.6,6.9-8.2,9.7-2.8,13.4
		C36.1,211.4,26.8,218.5,20.4,213.7z"/>
	<path id="XMLID_168_" class="st13" d="M18.1,206.4c0.3,0.2,0.8,0.5,1.4,0.9c2.3,1.4,5.5,3.3,5.2,5.4"/>
	<path id="XMLID_167_" class="st13" d="M17,178.2c-1.3-2.4-0.2-5.6,1-8.9"/>
	<path id="XMLID_166_" class="st16" d="M31.1,239.6H15.2c-0.8,0-1.5-0.6-1.6-1.4l-2.2-26.7c-0.1-0.8,0.6-1.5,1.4-1.5h20.6
		c0.8,0,1.4,0.7,1.4,1.5l-2.2,26.7C32.6,238.9,31.9,239.6,31.1,239.6z"/>
</g>
</svg>
